<svg xmlns="http://www.w3.org/2000/svg" xmlns:xlink="http://www.w3.org/1999/xlink" contentStyleType="text/css" height="1627px" preserveAspectRatio="none" style="width:757px;height:1627px;background:#FFFFFF;" version="1.1" viewBox="0 0 757 1627" width="757px" zoomAndPan="magnify"><defs/><g><!--class Usuario--><g id="elem_Usuario"><rect codeLine="1" fill="#F1F1F1" height="276.1563" id="Usuario" rx="2.5" ry="2.5" style="stroke:#181818;stroke-width:0.5;" width="413.5293" x="186.5" y="584"/><ellipse cx="362.4126" cy="600" fill="#ADD1B2" rx="11" ry="11" style="stroke:#181818;stroke-width:1.0;"/><path d="M365.3813,605.6406 Q364.8032,605.9375 364.1626,606.0781 Q363.522,606.2344 362.8188,606.2344 Q360.3188,606.2344 358.9907,604.5938 Q357.6782,602.9375 357.6782,599.8125 Q357.6782,596.6875 358.9907,595.0313 Q360.3188,593.375 362.8188,593.375 Q363.522,593.375 364.1626,593.5313 Q364.8188,593.6875 365.3813,593.9844 L365.3813,596.7031 Q364.7563,596.125 364.1626,595.8594 Q363.5688,595.5781 362.9438,595.5781 Q361.6001,595.5781 360.9126,596.6563 Q360.2251,597.7188 360.2251,599.8125 Q360.2251,601.9063 360.9126,602.9844 Q361.6001,604.0469 362.9438,604.0469 Q363.5688,604.0469 364.1626,603.7813 Q364.7563,603.5 365.3813,602.9219 L365.3813,605.6406 Z " fill="#000000"/><text fill="#000000" font-family="sans-serif" font-size="14" lengthAdjust="spacing" textLength="53.2041" x="382.9126" y="604.8467">Usuario</text><line style="stroke:#181818;stroke-width:0.5;" x1="187.5" x2="599.0293" y1="616" y2="616"/><ellipse cx="197.5" cy="629.6484" fill="none" rx="3" ry="3" style="stroke:#038048;stroke-width:1.0;"/><text fill="#000000" font-family="sans-serif" font-size="14" lengthAdjust="spacing" textLength="63.7246" x="206.5" y="632.9951">id: String</text><ellipse cx="197.5" cy="645.9453" fill="none" rx="3" ry="3" style="stroke:#038048;stroke-width:1.0;"/><text fill="#000000" font-family="sans-serif" font-size="14" lengthAdjust="spacing" textLength="105.2803" x="206.5" y="649.292">nombre: String</text><ellipse cx="197.5" cy="662.2422" fill="none" rx="3" ry="3" style="stroke:#038048;stroke-width:1.0;"/><text fill="#000000" font-family="sans-serif" font-size="14" lengthAdjust="spacing" textLength="89.5576" x="206.5" y="665.5889">email: String</text><ellipse cx="197.5" cy="678.5391" fill="none" rx="3" ry="3" style="stroke:#038048;stroke-width:1.0;"/><text fill="#000000" font-family="sans-serif" font-size="14" lengthAdjust="spacing" textLength="129.2676" x="206.5" y="681.8857">contrase&#241;a: String</text><ellipse cx="197.5" cy="694.8359" fill="none" rx="3" ry="3" style="stroke:#038048;stroke-width:1.0;"/><text fill="#000000" font-family="sans-serif" font-size="14" lengthAdjust="spacing" textLength="132.7744" x="206.5" y="698.1826">universidad: String</text><ellipse cx="197.5" cy="711.1328" fill="none" rx="3" ry="3" style="stroke:#038048;stroke-width:1.0;"/><text fill="#000000" font-family="sans-serif" font-size="14" lengthAdjust="spacing" textLength="114.0166" x="206.5" y="714.4795">fotoPerfil: String</text><ellipse cx="197.5" cy="727.4297" fill="none" rx="3" ry="3" style="stroke:#038048;stroke-width:1.0;"/><text fill="#000000" font-family="sans-serif" font-size="14" lengthAdjust="spacing" textLength="163.3174" x="206.5" y="730.7764">intereses: List&lt;String&gt;</text><line style="stroke:#181818;stroke-width:0.5;" x1="187.5" x2="599.0293" y1="738.0781" y2="738.0781"/><ellipse cx="197.5" cy="751.7266" fill="#84BE84" rx="3" ry="3" style="stroke:#038048;stroke-width:1.0;"/><text fill="#000000" font-family="sans-serif" font-size="14" lengthAdjust="spacing" textLength="215.5508" x="206.5" y="755.0732">darLike(usuario: Usuario): void</text><ellipse cx="197.5" cy="768.0234" fill="#84BE84" rx="3" ry="3" style="stroke:#038048;stroke-width:1.0;"/><text fill="#000000" font-family="sans-serif" font-size="14" lengthAdjust="spacing" textLength="233.6045" x="206.5" y="771.3701">darDislike(usuario: Usuario): void</text><ellipse cx="197.5" cy="784.3203" fill="#84BE84" rx="3" ry="3" style="stroke:#038048;stroke-width:1.0;"/><text fill="#000000" font-family="sans-serif" font-size="14" lengthAdjust="spacing" textLength="192.0215" x="206.5" y="787.667">verMatches(): List&lt;Match&gt;</text><ellipse cx="197.5" cy="800.6172" fill="#84BE84" rx="3" ry="3" style="stroke:#038048;stroke-width:1.0;"/><text fill="#000000" font-family="sans-serif" font-size="14" lengthAdjust="spacing" textLength="387.5293" x="206.5" y="803.9639">crearGrupo(nombre: String, descripcion: String): Grupo</text><ellipse cx="197.5" cy="816.9141" fill="#84BE84" rx="3" ry="3" style="stroke:#038048;stroke-width:1.0;"/><text fill="#000000" font-family="sans-serif" font-size="14" lengthAdjust="spacing" textLength="195.6582" x="206.5" y="820.2607">unirseA(grupo: Grupo): void</text><ellipse cx="197.5" cy="833.2109" fill="#84BE84" rx="3" ry="3" style="stroke:#038048;stroke-width:1.0;"/><text fill="#000000" font-family="sans-serif" font-size="14" lengthAdjust="spacing" textLength="191.584" x="206.5" y="836.5576">salirDe(grupo: Grupo): void</text><ellipse cx="197.5" cy="849.5078" fill="#84BE84" rx="3" ry="3" style="stroke:#038048;stroke-width:1.0;"/><text fill="#000000" font-family="sans-serif" font-size="14" lengthAdjust="spacing" textLength="361.0811" x="206.5" y="852.8545">crearEvento(grupo: Grupo, nombre: String): Evento</text></g><!--class Like--><g id="elem_Like"><rect codeLine="18" fill="#F1F1F1" height="113.1875" id="Like" rx="2.5" ry="2.5" style="stroke:#181818;stroke-width:0.5;" width="203.5498" x="214.5" y="937"/><ellipse cx="297.8198" cy="953" fill="#ADD1B2" rx="11" ry="11" style="stroke:#181818;stroke-width:1.0;"/><path d="M300.7886,958.6406 Q300.2104,958.9375 299.5698,959.0781 Q298.9292,959.2344 298.2261,959.2344 Q295.7261,959.2344 294.3979,957.5938 Q293.0854,955.9375 293.0854,952.8125 Q293.0854,949.6875 294.3979,948.0313 Q295.7261,946.375 298.2261,946.375 Q298.9292,946.375 299.5698,946.5313 Q300.2261,946.6875 300.7886,946.9844 L300.7886,949.7031 Q300.1636,949.125 299.5698,948.8594 Q298.9761,948.5781 298.3511,948.5781 Q297.0073,948.5781 296.3198,949.6563 Q295.6323,950.7188 295.6323,952.8125 Q295.6323,954.9063 296.3198,955.9844 Q297.0073,957.0469 298.3511,957.0469 Q298.9761,957.0469 299.5698,956.7813 Q300.1636,956.5 300.7886,955.9219 L300.7886,958.6406 Z " fill="#000000"/><text fill="#000000" font-family="sans-serif" font-size="14" lengthAdjust="spacing" textLength="28.4102" x="318.3198" y="957.8467">Like</text><line style="stroke:#181818;stroke-width:0.5;" x1="215.5" x2="417.0498" y1="969" y2="969"/><ellipse cx="225.5" cy="982.6484" fill="none" rx="3" ry="3" style="stroke:#038048;stroke-width:1.0;"/><text fill="#000000" font-family="sans-serif" font-size="14" lengthAdjust="spacing" textLength="63.7246" x="234.5" y="985.9951">id: String</text><ellipse cx="225.5" cy="998.9453" fill="none" rx="3" ry="3" style="stroke:#038048;stroke-width:1.0;"/><text fill="#000000" font-family="sans-serif" font-size="14" lengthAdjust="spacing" textLength="162.1895" x="234.5" y="1002.292">usuarioEmisor: Usuario</text><ellipse cx="225.5" cy="1015.2422" fill="none" rx="3" ry="3" style="stroke:#038048;stroke-width:1.0;"/><text fill="#000000" font-family="sans-serif" font-size="14" lengthAdjust="spacing" textLength="177.5498" x="234.5" y="1018.5889">usuarioReceptor: Usuario</text><ellipse cx="225.5" cy="1031.5391" fill="none" rx="3" ry="3" style="stroke:#038048;stroke-width:1.0;"/><text fill="#000000" font-family="sans-serif" font-size="14" lengthAdjust="spacing" textLength="111.2959" x="234.5" y="1034.8857">mutuo: Boolean</text><line style="stroke:#181818;stroke-width:0.5;" x1="215.5" x2="417.0498" y1="1042.1875" y2="1042.1875"/></g><!--class Match--><g id="elem_Match"><rect codeLine="25" fill="#F1F1F1" height="96.8906" id="Match" rx="2.5" ry="2.5" style="stroke:#181818;stroke-width:0.5;" width="219.71" x="214.5" y="1127"/><ellipse cx="298.7461" cy="1143" fill="#ADD1B2" rx="11" ry="11" style="stroke:#181818;stroke-width:1.0;"/><path d="M301.7148,1148.6406 Q301.1367,1148.9375 300.4961,1149.0781 Q299.8555,1149.2344 299.1523,1149.2344 Q296.6523,1149.2344 295.3242,1147.5938 Q294.0117,1145.9375 294.0117,1142.8125 Q294.0117,1139.6875 295.3242,1138.0313 Q296.6523,1136.375 299.1523,1136.375 Q299.8555,1136.375 300.4961,1136.5313 Q301.1523,1136.6875 301.7148,1136.9844 L301.7148,1139.7031 Q301.0898,1139.125 300.4961,1138.8594 Q299.9023,1138.5781 299.2773,1138.5781 Q297.9336,1138.5781 297.2461,1139.6563 Q296.5586,1140.7188 296.5586,1142.8125 Q296.5586,1144.9063 297.2461,1145.9844 Q297.9336,1147.0469 299.2773,1147.0469 Q299.9023,1147.0469 300.4961,1146.7813 Q301.0898,1146.5 301.7148,1145.9219 L301.7148,1148.6406 Z " fill="#000000"/><text fill="#000000" font-family="sans-serif" font-size="14" lengthAdjust="spacing" textLength="42.7178" x="319.2461" y="1147.8467">Match</text><line style="stroke:#181818;stroke-width:0.5;" x1="215.5" x2="433.21" y1="1159" y2="1159"/><ellipse cx="225.5" cy="1172.6484" fill="none" rx="3" ry="3" style="stroke:#038048;stroke-width:1.0;"/><text fill="#000000" font-family="sans-serif" font-size="14" lengthAdjust="spacing" textLength="63.7246" x="234.5" y="1175.9951">id: String</text><ellipse cx="225.5" cy="1188.9453" fill="none" rx="3" ry="3" style="stroke:#038048;stroke-width:1.0;"/><text fill="#000000" font-family="sans-serif" font-size="14" lengthAdjust="spacing" textLength="193.71" x="234.5" y="1192.292">usuarios: List&lt;Usuario&gt; [2]</text><ellipse cx="225.5" cy="1205.2422" fill="none" rx="3" ry="3" style="stroke:#038048;stroke-width:1.0;"/><text fill="#000000" font-family="sans-serif" font-size="14" lengthAdjust="spacing" textLength="72.5225" x="234.5" y="1208.5889">chat: Chat</text><line style="stroke:#181818;stroke-width:0.5;" x1="215.5" x2="433.21" y1="1215.8906" y2="1215.8906"/></g><!--class Grupo--><g id="elem_Grupo"><rect codeLine="31" fill="#F1F1F1" height="243.5625" id="Grupo" rx="2.5" ry="2.5" style="stroke:#181818;stroke-width:0.5;" width="357.0645" x="7" y="7"/><ellipse cx="159.8174" cy="23" fill="#ADD1B2" rx="11" ry="11" style="stroke:#181818;stroke-width:1.0;"/><path d="M162.7861,28.6406 Q162.208,28.9375 161.5674,29.0781 Q160.9268,29.2344 160.2236,29.2344 Q157.7236,29.2344 156.3955,27.5938 Q155.083,25.9375 155.083,22.8125 Q155.083,19.6875 156.3955,18.0313 Q157.7236,16.375 160.2236,16.375 Q160.9268,16.375 161.5674,16.5313 Q162.2236,16.6875 162.7861,16.9844 L162.7861,19.7031 Q162.1611,19.125 161.5674,18.8594 Q160.9736,18.5781 160.3486,18.5781 Q159.0049,18.5781 158.3174,19.6563 Q157.6299,20.7188 157.6299,22.8125 Q157.6299,24.9063 158.3174,25.9844 Q159.0049,27.0469 160.3486,27.0469 Q160.9736,27.0469 161.5674,26.7813 Q162.1611,26.5 162.7861,25.9219 L162.7861,28.6406 Z " fill="#000000"/><text fill="#000000" font-family="sans-serif" font-size="14" lengthAdjust="spacing" textLength="42.9297" x="180.3174" y="27.8467">Grupo</text><line style="stroke:#181818;stroke-width:0.5;" x1="8" x2="363.0645" y1="39" y2="39"/><ellipse cx="18" cy="52.6484" fill="none" rx="3" ry="3" style="stroke:#038048;stroke-width:1.0;"/><text fill="#000000" font-family="sans-serif" font-size="14" lengthAdjust="spacing" textLength="63.7246" x="27" y="55.9951">id: String</text><ellipse cx="18" cy="68.9453" fill="none" rx="3" ry="3" style="stroke:#038048;stroke-width:1.0;"/><text fill="#000000" font-family="sans-serif" font-size="14" lengthAdjust="spacing" textLength="105.2803" x="27" y="72.292">nombre: String</text><ellipse cx="18" cy="85.2422" fill="none" rx="3" ry="3" style="stroke:#038048;stroke-width:1.0;"/><text fill="#000000" font-family="sans-serif" font-size="14" lengthAdjust="spacing" textLength="130.9971" x="27" y="88.5889">descripcion: String</text><ellipse cx="18" cy="101.5391" fill="none" rx="3" ry="3" style="stroke:#038048;stroke-width:1.0;"/><text fill="#000000" font-family="sans-serif" font-size="14" lengthAdjust="spacing" textLength="124.2842" x="27" y="104.8857">privacidad: String</text><ellipse cx="18" cy="117.8359" fill="none" rx="3" ry="3" style="stroke:#038048;stroke-width:1.0;"/><text fill="#000000" font-family="sans-serif" font-size="14" lengthAdjust="spacing" textLength="180.585" x="27" y="121.1826">miembros: List&lt;Usuario&gt;</text><ellipse cx="18" cy="134.1328" fill="none" rx="3" ry="3" style="stroke:#038048;stroke-width:1.0;"/><text fill="#000000" font-family="sans-serif" font-size="14" lengthAdjust="spacing" textLength="224.2939" x="27" y="137.4795">administradores: List&lt;Usuario&gt;</text><ellipse cx="18" cy="150.4297" fill="none" rx="3" ry="3" style="stroke:#038048;stroke-width:1.0;"/><text fill="#000000" font-family="sans-serif" font-size="14" lengthAdjust="spacing" textLength="161.5059" x="27" y="153.7764">eventos: List&lt;Evento&gt;</text><ellipse cx="18" cy="166.7266" fill="none" rx="3" ry="3" style="stroke:#038048;stroke-width:1.0;"/><text fill="#000000" font-family="sans-serif" font-size="14" lengthAdjust="spacing" textLength="119.3555" x="27" y="170.0732">chatGrupal: Chat</text><ellipse cx="18" cy="183.0234" fill="none" rx="3" ry="3" style="stroke:#038048;stroke-width:1.0;"/><text fill="#000000" font-family="sans-serif" font-size="14" lengthAdjust="spacing" textLength="243.667" x="27" y="186.3701">solicitudes: List&lt;SolicitudIngreso&gt;</text><line style="stroke:#181818;stroke-width:0.5;" x1="8" x2="363.0645" y1="193.6719" y2="193.6719"/><ellipse cx="18" cy="207.3203" fill="#84BE84" rx="3" ry="3" style="stroke:#038048;stroke-width:1.0;"/><text fill="#000000" font-family="sans-serif" font-size="14" lengthAdjust="spacing" textLength="280.4033" x="27" y="210.667">agregarMiembro(usuario: Usuario): void</text><ellipse cx="18" cy="223.6172" fill="#84BE84" rx="3" ry="3" style="stroke:#038048;stroke-width:1.0;"/><text fill="#000000" font-family="sans-serif" font-size="14" lengthAdjust="spacing" textLength="284.5732" x="27" y="226.9639">removerMiembro(usuario: Usuario): void</text><ellipse cx="18" cy="239.9141" fill="#84BE84" rx="3" ry="3" style="stroke:#038048;stroke-width:1.0;"/><text fill="#000000" font-family="sans-serif" font-size="14" lengthAdjust="spacing" textLength="331.0645" x="27" y="243.2607">promoverAdministrador(usuario: Usuario): void</text></g><!--class Evento--><g id="elem_Evento"><rect codeLine="46" fill="#F1F1F1" height="194.6719" id="Evento" rx="2.5" ry="2.5" style="stroke:#181818;stroke-width:0.5;" width="233.2178" x="293" y="312"/><ellipse cx="381.0229" cy="328" fill="#ADD1B2" rx="11" ry="11" style="stroke:#181818;stroke-width:1.0;"/><path d="M383.9917,333.6406 Q383.4136,333.9375 382.7729,334.0781 Q382.1323,334.2344 381.4292,334.2344 Q378.9292,334.2344 377.6011,332.5938 Q376.2886,330.9375 376.2886,327.8125 Q376.2886,324.6875 377.6011,323.0313 Q378.9292,321.375 381.4292,321.375 Q382.1323,321.375 382.7729,321.5313 Q383.4292,321.6875 383.9917,321.9844 L383.9917,324.7031 Q383.3667,324.125 382.7729,323.8594 Q382.1792,323.5781 381.5542,323.5781 Q380.2104,323.5781 379.5229,324.6563 Q378.8354,325.7188 378.8354,327.8125 Q378.8354,329.9063 379.5229,330.9844 Q380.2104,332.0469 381.5542,332.0469 Q382.1792,332.0469 382.7729,331.7813 Q383.3667,331.5 383.9917,330.9219 L383.9917,333.6406 Z " fill="#000000"/><text fill="#000000" font-family="sans-serif" font-size="14" lengthAdjust="spacing" textLength="48.6719" x="401.5229" y="332.8467">Evento</text><line style="stroke:#181818;stroke-width:0.5;" x1="294" x2="525.2178" y1="344" y2="344"/><ellipse cx="304" cy="357.6484" fill="none" rx="3" ry="3" style="stroke:#038048;stroke-width:1.0;"/><text fill="#000000" font-family="sans-serif" font-size="14" lengthAdjust="spacing" textLength="63.7246" x="313" y="360.9951">id: String</text><ellipse cx="304" cy="373.9453" fill="none" rx="3" ry="3" style="stroke:#038048;stroke-width:1.0;"/><text fill="#000000" font-family="sans-serif" font-size="14" lengthAdjust="spacing" textLength="105.2803" x="313" y="377.292">nombre: String</text><ellipse cx="304" cy="390.2422" fill="none" rx="3" ry="3" style="stroke:#038048;stroke-width:1.0;"/><text fill="#000000" font-family="sans-serif" font-size="14" lengthAdjust="spacing" textLength="81.3203" x="313" y="393.5889">fecha: Date</text><ellipse cx="304" cy="406.5391" fill="none" rx="3" ry="3" style="stroke:#038048;stroke-width:1.0;"/><text fill="#000000" font-family="sans-serif" font-size="14" lengthAdjust="spacing" textLength="117.8994" x="313" y="409.8857">ubicacion: String</text><ellipse cx="304" cy="422.8359" fill="none" rx="3" ry="3" style="stroke:#038048;stroke-width:1.0;"/><text fill="#000000" font-family="sans-serif" font-size="14" lengthAdjust="spacing" textLength="116.5459" x="313" y="426.1826">publico: Boolean</text><ellipse cx="304" cy="439.1328" fill="none" rx="3" ry="3" style="stroke:#038048;stroke-width:1.0;"/><text fill="#000000" font-family="sans-serif" font-size="14" lengthAdjust="spacing" textLength="181.7334" x="313" y="442.4795">asistentes: List&lt;Usuario&gt;</text><line style="stroke:#181818;stroke-width:0.5;" x1="294" x2="525.2178" y1="449.7813" y2="449.7813"/><ellipse cx="304" cy="463.4297" fill="#84BE84" rx="3" ry="3" style="stroke:#038048;stroke-width:1.0;"/><text fill="#000000" font-family="sans-serif" font-size="14" lengthAdjust="spacing" textLength="207.2178" x="313" y="466.7764">unirse(usuario: Usuario): void</text><ellipse cx="304" cy="479.7266" fill="#84BE84" rx="3" ry="3" style="stroke:#038048;stroke-width:1.0;"/><text fill="#000000" font-family="sans-serif" font-size="14" lengthAdjust="spacing" textLength="193.3271" x="313" y="483.0732">salir(usuario: Usuario): void</text><ellipse cx="304" cy="496.0234" fill="#84BE84" rx="3" ry="3" style="stroke:#038048;stroke-width:1.0;"/><text fill="#000000" font-family="sans-serif" font-size="14" lengthAdjust="spacing" textLength="109.4023" x="313" y="499.3701">cancelar(): void</text></g><!--class Cita--><g id="elem_Cita"><rect codeLine="58" fill="#F1F1F1" height="80.5938" id="Cita" rx="2.5" ry="2.5" style="stroke:#181818;stroke-width:0.5;" width="143.8994" x="395.5" y="1325"/><ellipse cx="449.333" cy="1341" fill="#ADD1B2" rx="11" ry="11" style="stroke:#181818;stroke-width:1.0;"/><path d="M452.3018,1346.6406 Q451.7236,1346.9375 451.083,1347.0781 Q450.4424,1347.2344 449.7393,1347.2344 Q447.2393,1347.2344 445.9111,1345.5938 Q444.5986,1343.9375 444.5986,1340.8125 Q444.5986,1337.6875 445.9111,1336.0313 Q447.2393,1334.375 449.7393,1334.375 Q450.4424,1334.375 451.083,1334.5313 Q451.7393,1334.6875 452.3018,1334.9844 L452.3018,1337.7031 Q451.6768,1337.125 451.083,1336.8594 Q450.4893,1336.5781 449.8643,1336.5781 Q448.5205,1336.5781 447.833,1337.6563 Q447.1455,1338.7188 447.1455,1340.8125 Q447.1455,1342.9063 447.833,1343.9844 Q448.5205,1345.0469 449.8643,1345.0469 Q450.4893,1345.0469 451.083,1344.7813 Q451.6768,1344.5 452.3018,1343.9219 L452.3018,1346.6406 Z " fill="#000000"/><text fill="#000000" font-family="sans-serif" font-size="14" lengthAdjust="spacing" textLength="27.7334" x="469.833" y="1345.8467">Cita</text><line style="stroke:#181818;stroke-width:0.5;" x1="396.5" x2="538.3994" y1="1357" y2="1357"/><ellipse cx="406.5" cy="1370.6484" fill="none" rx="3" ry="3" style="stroke:#038048;stroke-width:1.0;"/><text fill="#000000" font-family="sans-serif" font-size="14" lengthAdjust="spacing" textLength="81.3203" x="415.5" y="1373.9951">fecha: Date</text><ellipse cx="406.5" cy="1386.9453" fill="none" rx="3" ry="3" style="stroke:#038048;stroke-width:1.0;"/><text fill="#000000" font-family="sans-serif" font-size="14" lengthAdjust="spacing" textLength="117.8994" x="415.5" y="1390.292">ubicacion: String</text><line style="stroke:#181818;stroke-width:0.5;" x1="396.5" x2="538.3994" y1="1397.5938" y2="1397.5938"/></g><!--class SolicitudIngreso--><g id="elem_SolicitudIngreso"><rect codeLine="65" fill="#F1F1F1" height="129.4844" id="SolicitudIngreso" rx="2.5" ry="2.5" style="stroke:#181818;stroke-width:0.5;" width="144.1846" x="113.5" y="345"/><ellipse cx="128.5" cy="361" fill="#ADD1B2" rx="11" ry="11" style="stroke:#181818;stroke-width:1.0;"/><path d="M131.4688,366.6406 Q130.8906,366.9375 130.25,367.0781 Q129.6094,367.2344 128.9063,367.2344 Q126.4063,367.2344 125.0781,365.5938 Q123.7656,363.9375 123.7656,360.8125 Q123.7656,357.6875 125.0781,356.0313 Q126.4063,354.375 128.9063,354.375 Q129.6094,354.375 130.25,354.5313 Q130.9063,354.6875 131.4688,354.9844 L131.4688,357.7031 Q130.8438,357.125 130.25,356.8594 Q129.6563,356.5781 129.0313,356.5781 Q127.6875,356.5781 127,357.6563 Q126.3125,358.7188 126.3125,360.8125 Q126.3125,362.9063 127,363.9844 Q127.6875,365.0469 129.0313,365.0469 Q129.6563,365.0469 130.25,364.7813 Q130.8438,364.5 131.4688,363.9219 L131.4688,366.6406 Z " fill="#000000"/><text fill="#000000" font-family="sans-serif" font-size="14" lengthAdjust="spacing" textLength="112.1846" x="142.5" y="365.8467">SolicitudIngreso</text><line style="stroke:#181818;stroke-width:0.5;" x1="114.5" x2="256.6846" y1="377" y2="377"/><ellipse cx="124.5" cy="390.6484" fill="none" rx="3" ry="3" style="stroke:#038048;stroke-width:1.0;"/><text fill="#000000" font-family="sans-serif" font-size="14" lengthAdjust="spacing" textLength="63.7246" x="133.5" y="393.9951">id: String</text><ellipse cx="124.5" cy="406.9453" fill="none" rx="3" ry="3" style="stroke:#038048;stroke-width:1.0;"/><text fill="#000000" font-family="sans-serif" font-size="14" lengthAdjust="spacing" textLength="114.2012" x="133.5" y="410.292">usuario: Usuario</text><ellipse cx="124.5" cy="423.2422" fill="none" rx="3" ry="3" style="stroke:#038048;stroke-width:1.0;"/><text fill="#000000" font-family="sans-serif" font-size="14" lengthAdjust="spacing" textLength="98.376" x="133.5" y="426.5889">estado: String</text><line style="stroke:#181818;stroke-width:0.5;" x1="114.5" x2="256.6846" y1="433.8906" y2="433.8906"/><ellipse cx="124.5" cy="447.5391" fill="#84BE84" rx="3" ry="3" style="stroke:#038048;stroke-width:1.0;"/><text fill="#000000" font-family="sans-serif" font-size="14" lengthAdjust="spacing" textLength="103.3184" x="133.5" y="450.8857">aceptar(): void</text><ellipse cx="124.5" cy="463.8359" fill="#84BE84" rx="3" ry="3" style="stroke:#038048;stroke-width:1.0;"/><text fill="#000000" font-family="sans-serif" font-size="14" lengthAdjust="spacing" textLength="110.9199" x="133.5" y="467.1826">rechazar(): void</text></g><!--class Chat--><g id="elem_Chat"><rect codeLine="73" fill="#F1F1F1" height="129.4844" id="Chat" rx="2.5" ry="2.5" style="stroke:#181818;stroke-width:0.5;" width="300.5244" x="11" y="1301"/><ellipse cx="140.6538" cy="1317" fill="#ADD1B2" rx="11" ry="11" style="stroke:#181818;stroke-width:1.0;"/><path d="M143.6226,1322.6406 Q143.0444,1322.9375 142.4038,1323.0781 Q141.7632,1323.2344 141.0601,1323.2344 Q138.5601,1323.2344 137.2319,1321.5938 Q135.9194,1319.9375 135.9194,1316.8125 Q135.9194,1313.6875 137.2319,1312.0313 Q138.5601,1310.375 141.0601,1310.375 Q141.7632,1310.375 142.4038,1310.5313 Q143.0601,1310.6875 143.6226,1310.9844 L143.6226,1313.7031 Q142.9976,1313.125 142.4038,1312.8594 Q141.8101,1312.5781 141.1851,1312.5781 Q139.8413,1312.5781 139.1538,1313.6563 Q138.4663,1314.7188 138.4663,1316.8125 Q138.4663,1318.9063 139.1538,1319.9844 Q139.8413,1321.0469 141.1851,1321.0469 Q141.8101,1321.0469 142.4038,1320.7813 Q142.9976,1320.5 143.6226,1319.9219 L143.6226,1322.6406 Z " fill="#000000"/><text fill="#000000" font-family="sans-serif" font-size="14" lengthAdjust="spacing" textLength="32.7168" x="161.1538" y="1321.8467">Chat</text><line style="stroke:#181818;stroke-width:0.5;" x1="12" x2="310.5244" y1="1333" y2="1333"/><ellipse cx="22" cy="1346.6484" fill="none" rx="3" ry="3" style="stroke:#038048;stroke-width:1.0;"/><text fill="#000000" font-family="sans-serif" font-size="14" lengthAdjust="spacing" textLength="63.7246" x="31" y="1349.9951">id: String</text><ellipse cx="22" cy="1362.9453" fill="none" rx="3" ry="3" style="stroke:#038048;stroke-width:1.0;"/><text fill="#000000" font-family="sans-serif" font-size="14" lengthAdjust="spacing" textLength="169.4287" x="31" y="1366.292">usuarios: List&lt;Usuario&gt;</text><ellipse cx="22" cy="1379.2422" fill="none" rx="3" ry="3" style="stroke:#038048;stroke-width:1.0;"/><text fill="#000000" font-family="sans-serif" font-size="14" lengthAdjust="spacing" textLength="181.8359" x="31" y="1382.5889">mensajes: List&lt;Mensaje&gt;</text><line style="stroke:#181818;stroke-width:0.5;" x1="12" x2="310.5244" y1="1389.8906" y2="1389.8906"/><ellipse cx="22" cy="1403.5391" fill="#84BE84" rx="3" ry="3" style="stroke:#038048;stroke-width:1.0;"/><text fill="#000000" font-family="sans-serif" font-size="14" lengthAdjust="spacing" textLength="272.0566" x="31" y="1406.8857">enviarMensaje(contenido: String): void</text><ellipse cx="22" cy="1419.8359" fill="#84BE84" rx="3" ry="3" style="stroke:#038048;stroke-width:1.0;"/><text fill="#000000" font-family="sans-serif" font-size="14" lengthAdjust="spacing" textLength="274.5244" x="31" y="1423.1826">reportarUsuario(usuario: Usuario): void</text></g><!--class Mensaje--><g id="elem_Mensaje"><rect codeLine="81" fill="#F1F1F1" height="113.1875" id="Mensaje" rx="2.5" ry="2.5" style="stroke:#181818;stroke-width:0.5;" width="146.4014" x="88.5" y="1507"/><ellipse cx="128.907" cy="1523" fill="#ADD1B2" rx="11" ry="11" style="stroke:#181818;stroke-width:1.0;"/><path d="M131.8757,1528.6406 Q131.2976,1528.9375 130.657,1529.0781 Q130.0164,1529.2344 129.3132,1529.2344 Q126.8132,1529.2344 125.4851,1527.5938 Q124.1726,1525.9375 124.1726,1522.8125 Q124.1726,1519.6875 125.4851,1518.0313 Q126.8132,1516.375 129.3132,1516.375 Q130.0164,1516.375 130.657,1516.5313 Q131.3132,1516.6875 131.8757,1516.9844 L131.8757,1519.7031 Q131.2507,1519.125 130.657,1518.8594 Q130.0632,1518.5781 129.4382,1518.5781 Q128.0945,1518.5781 127.407,1519.6563 Q126.7195,1520.7188 126.7195,1522.8125 Q126.7195,1524.9063 127.407,1525.9844 Q128.0945,1527.0469 129.4382,1527.0469 Q130.0632,1527.0469 130.657,1526.7813 Q131.2507,1526.5 131.8757,1525.9219 L131.8757,1528.6406 Z " fill="#000000"/><text fill="#000000" font-family="sans-serif" font-size="14" lengthAdjust="spacing" textLength="57.9414" x="148.553" y="1527.8467">Mensaje</text><line style="stroke:#181818;stroke-width:0.5;" x1="89.5" x2="233.9014" y1="1539" y2="1539"/><ellipse cx="99.5" cy="1552.6484" fill="none" rx="3" ry="3" style="stroke:#038048;stroke-width:1.0;"/><text fill="#000000" font-family="sans-serif" font-size="14" lengthAdjust="spacing" textLength="63.7246" x="108.5" y="1555.9951">id: String</text><ellipse cx="99.5" cy="1568.9453" fill="none" rx="3" ry="3" style="stroke:#038048;stroke-width:1.0;"/><text fill="#000000" font-family="sans-serif" font-size="14" lengthAdjust="spacing" textLength="120.4014" x="108.5" y="1572.292">contenido: String</text><ellipse cx="99.5" cy="1585.2422" fill="none" rx="3" ry="3" style="stroke:#038048;stroke-width:1.0;"/><text fill="#000000" font-family="sans-serif" font-size="14" lengthAdjust="spacing" textLength="118.1455" x="108.5" y="1588.5889">timestamp: Date</text><ellipse cx="99.5" cy="1601.5391" fill="none" rx="3" ry="3" style="stroke:#038048;stroke-width:1.0;"/><text fill="#000000" font-family="sans-serif" font-size="14" lengthAdjust="spacing" textLength="99.6338" x="108.5" y="1604.8857">autor: Usuario</text><line style="stroke:#181818;stroke-width:0.5;" x1="89.5" x2="233.9014" y1="1612.1875" y2="1612.1875"/></g><!--class Premium--><g id="elem_Premium"><rect codeLine="88" fill="#F1F1F1" height="113.1875" id="Premium" rx="2.5" ry="2.5" style="stroke:#181818;stroke-width:0.5;" width="180.875" x="454" y="937"/><ellipse cx="508.7627" cy="953" fill="#ADD1B2" rx="11" ry="11" style="stroke:#181818;stroke-width:1.0;"/><path d="M511.7314,958.6406 Q511.1533,958.9375 510.5127,959.0781 Q509.8721,959.2344 509.1689,959.2344 Q506.6689,959.2344 505.3408,957.5938 Q504.0283,955.9375 504.0283,952.8125 Q504.0283,949.6875 505.3408,948.0313 Q506.6689,946.375 509.1689,946.375 Q509.8721,946.375 510.5127,946.5313 Q511.1689,946.6875 511.7314,946.9844 L511.7314,949.7031 Q511.1064,949.125 510.5127,948.8594 Q509.9189,948.5781 509.2939,948.5781 Q507.9502,948.5781 507.2627,949.6563 Q506.5752,950.7188 506.5752,952.8125 Q506.5752,954.9063 507.2627,955.9844 Q507.9502,957.0469 509.2939,957.0469 Q509.9189,957.0469 510.5127,956.7813 Q511.1064,956.5 511.7314,955.9219 L511.7314,958.6406 Z " fill="#000000"/><text fill="#000000" font-family="sans-serif" font-size="14" lengthAdjust="spacing" textLength="62.8496" x="529.2627" y="957.8467">Premium</text><line style="stroke:#181818;stroke-width:0.5;" x1="455" x2="633.875" y1="969" y2="969"/><ellipse cx="465" cy="982.6484" fill="none" rx="3" ry="3" style="stroke:#038048;stroke-width:1.0;"/><text fill="#000000" font-family="sans-serif" font-size="14" lengthAdjust="spacing" textLength="63.7246" x="474" y="985.9951">id: String</text><ellipse cx="465" cy="998.9453" fill="none" rx="3" ry="3" style="stroke:#038048;stroke-width:1.0;"/><text fill="#000000" font-family="sans-serif" font-size="14" lengthAdjust="spacing" textLength="77.7793" x="474" y="1002.292">tipo: String</text><ellipse cx="465" cy="1015.2422" fill="none" rx="3" ry="3" style="stroke:#038048;stroke-width:1.0;"/><text fill="#000000" font-family="sans-serif" font-size="14" lengthAdjust="spacing" textLength="102.5459" x="474" y="1018.5889">superLikes: int</text><ellipse cx="465" cy="1031.5391" fill="none" rx="3" ry="3" style="stroke:#038048;stroke-width:1.0;"/><text fill="#000000" font-family="sans-serif" font-size="14" lengthAdjust="spacing" textLength="154.875" x="474" y="1034.8857">filtrosAvanzados: bool</text><line style="stroke:#181818;stroke-width:0.5;" x1="455" x2="633.875" y1="1042.1875" y2="1042.1875"/></g><!--reverse link Evento to Cita--><g id="link_Evento_Cita"><path codeLine="63" d="M541.1761,482.4926 C624.0061,536.0426 705.5,612.08 705.5,721 C705.5,721 705.5,721 705.5,1176.5 C705.5,1262.07 609.6,1314.75 539.55,1341.83 " fill="none" id="Evento-backto-Cita" style="stroke:#181818;stroke-width:1.0;"/><polygon fill="none" points="526.06,472.72,537.9185,487.5313,544.4336,477.4539,526.06,472.72" style="stroke:#181818;stroke-width:1.0;"/><text fill="#000000" font-family="sans-serif" font-size="13" lengthAdjust="spacing" textLength="43.3481" x="706.5" y="998.0669">es una</text></g><!--link Usuario to Like--><g id="link_Usuario_Like"><path codeLine="95" d="M322.01,860.25 C318.65,870.15 315.74,880.12 313.5,890 C310.09,905.02 309.1426,915.5929 309.6226,930.9529 " fill="none" id="Usuario-to-Like" style="stroke:#181818;stroke-width:1.0;"/><polygon fill="#181818" points="309.81,936.95,313.5269,927.8295,309.6538,931.9524,305.5308,928.0793,309.81,936.95" style="stroke:#181818;stroke-width:1.0;"/><text fill="#000000" font-family="sans-serif" font-size="13" lengthAdjust="spacing" textLength="35.7246" x="314.5" y="903.0669">Envia</text><text fill="#000000" font-family="sans-serif" font-size="13" lengthAdjust="spacing" textLength="23.0356" x="284.5105" y="925.807">0..*</text></g><!--link Like to Usuario--><g id="link_Like_Usuario"><path codeLine="96" d="M343.35,936.58 C347.44,926.86 351.34,916.73 354.5,907 C359.33,892.09 362.2791,882.1219 366.2191,866.3119 " fill="none" id="Like-to-Usuario" style="stroke:#181818;stroke-width:1.0;"/><polygon fill="#181818" points="367.67,860.49,361.6124,868.2557,366.4609,865.3416,369.375,870.1902,367.67,860.49" style="stroke:#181818;stroke-width:1.0;"/><text fill="#000000" font-family="sans-serif" font-size="13" lengthAdjust="spacing" textLength="58.8237" x="360.5" y="903.0669">Receptor</text></g><!--link Like to Match--><g id="link_Like_Match"><path codeLine="97" d="M318.99,1050.47 C320.07,1074.93 321.0741,1097.3259 322.1141,1120.7659 " fill="none" id="Like-to-Match" style="stroke:#181818;stroke-width:1.0;"/><polygon fill="#181818" points="322.38,1126.76,325.9771,1117.5915,322.1584,1121.7649,317.985,1117.9461,322.38,1126.76" style="stroke:#181818;stroke-width:1.0;"/><text fill="#000000" font-family="sans-serif" font-size="13" lengthAdjust="spacing" textLength="127.3657" x="322.5" y="1093.0669">Genera si es mutuo</text></g><!--link Usuario to Premium--><g id="link_Usuario_Premium"><path codeLine="98" d="M470.33,860.12 C485.55,887.3 497.7784,909.105 510.3784,931.605 " fill="none" id="Usuario-to-Premium" style="stroke:#181818;stroke-width:1.0;"/><polygon fill="#181818" points="513.31,936.84,512.4026,927.033,510.867,932.4775,505.4225,930.9419,513.31,936.84" style="stroke:#181818;stroke-width:1.0;"/><text fill="#000000" font-family="sans-serif" font-size="13" lengthAdjust="spacing" textLength="52.4189" x="496.5" y="903.0669">Suscrito</text><text fill="#000000" font-family="sans-serif" font-size="13" lengthAdjust="spacing" textLength="24.8066" x="484.103" y="926.0841">0..1</text></g><!--link Usuario to Chat--><g id="link_Usuario_Chat"><path codeLine="99" d="M243.82,860.27 C225.08,884.07 208.35,909.94 196.5,937 C143.84,1057.22 146.6056,1208.5604 153.7456,1294.9104 " fill="none" id="Usuario-to-Chat" style="stroke:#181818;stroke-width:1.0;"/><polygon fill="#181818" points="154.24,1300.89,157.4847,1291.591,153.828,1295.907,149.512,1292.2502,154.24,1300.89" style="stroke:#181818;stroke-width:1.0;"/><text fill="#000000" font-family="sans-serif" font-size="13" lengthAdjust="spacing" textLength="87.9976" x="159.5" y="1093.0669">Conversaci&#243;n</text><text fill="#000000" font-family="sans-serif" font-size="13" lengthAdjust="spacing" textLength="23.0356" x="129.2161" y="1290.0506">1..*</text></g><!--link Grupo to Chat--><g id="link_Grupo_Chat"><path codeLine="100" d="M104.92,251.03 C80.74,298.17 60.5,353.91 60.5,408.5 C60.5,408.5 60.5,408.5 60.5,1176.5 C60.5,1221.52 79.8303,1261.2199 103.7403,1295.6899 " fill="none" id="Grupo-to-Chat" style="stroke:#181818;stroke-width:1.0;"/><polygon fill="#181818" points="107.16,1300.62,105.3171,1290.9451,104.3102,1296.5116,98.7437,1295.5047,107.16,1300.62" style="stroke:#181818;stroke-width:1.0;"/><text fill="#000000" font-family="sans-serif" font-size="13" lengthAdjust="spacing" textLength="76.1782" x="61.5" y="903.0669">Chat grupal</text><text fill="#000000" font-family="sans-serif" font-size="13" lengthAdjust="spacing" textLength="8.271" x="92.8199" y="1289.7511">1</text></g><!--link Grupo to Evento--><g id="link_Grupo_Evento"><path codeLine="101" d="M283.1,251.34 C299.37,271.57 312.2899,287.6344 327.9799,307.1444 " fill="none" id="Grupo-to-Evento" style="stroke:#181818;stroke-width:1.0;"/><polygon fill="#181818" points="331.74,311.82,329.2169,302.2998,328.6065,307.9237,322.9827,307.3133,331.74,311.82" style="stroke:#181818;stroke-width:1.0;"/><text fill="#000000" font-family="sans-serif" font-size="13" lengthAdjust="spacing" textLength="23.0356" x="301.8991" y="300.8517">1..*</text></g><!--link Grupo to SolicitudIngreso--><g id="link_Grupo_SolicitudIngreso"><path codeLine="102" d="M185.5,251.34 C185.5,283.59 185.5,311.14 185.5,338.92 " fill="none" id="Grupo-to-SolicitudIngreso" style="stroke:#181818;stroke-width:1.0;"/><polygon fill="#181818" points="185.5,344.92,189.5,335.92,185.5,339.92,181.5,335.92,185.5,344.92" style="stroke:#181818;stroke-width:1.0;"/><text fill="#000000" font-family="sans-serif" font-size="13" lengthAdjust="spacing" textLength="23.0356" x="161.234" y="334.0839">0..*</text></g><!--link Evento to Usuario--><g id="link_Evento_Usuario"><path codeLine="103" d="M404.53,507.04 C403.27,531.34 402.2079,551.8979 400.8779,577.7779 " fill="none" id="Evento-to-Usuario" style="stroke:#181818;stroke-width:1.0;"/><polygon fill="#181818" points="400.57,583.77,405.0266,574.9872,400.8266,578.7766,397.0372,574.5766,400.57,583.77" style="stroke:#181818;stroke-width:1.0;"/><text fill="#000000" font-family="sans-serif" font-size="13" lengthAdjust="spacing" textLength="67.2534" x="404.5" y="550.0669">Asistentes</text><text fill="#000000" font-family="sans-serif" font-size="13" lengthAdjust="spacing" textLength="23.0356" x="377.3416" y="572.8666">1..*</text></g><!--link Match to Cita--><g id="link_Match_Cita"><path codeLine="104" d="M373.8,1224.23 C382.74,1233.76 391.69,1243.94 399.5,1254 C416.77,1276.24 430.3967,1297.9 442.8767,1319.58 " fill="none" id="Match-to-Cita" style="stroke:#181818;stroke-width:1.0;"/><polygon fill="#181818" points="445.87,1324.78,444.8466,1314.9845,443.3755,1320.4467,437.9133,1318.9756,445.87,1324.78" style="stroke:#181818;stroke-width:1.0;"/><text fill="#000000" font-family="sans-serif" font-size="13" lengthAdjust="spacing" textLength="79.1362" x="411.5" y="1267.0669">Puede tener</text></g><!--link Match to Chat--><g id="link_Match_Chat"><path codeLine="105" d="M276.24,1224.1 C266.84,1233.81 257.21,1244.09 248.5,1254 C235.52,1268.76 225.8208,1280.453 213.5208,1296.013 " fill="none" id="Match-to-Chat" style="stroke:#181818;stroke-width:1.0;"/><polygon fill="#181818" points="209.8,1300.72,218.5192,1296.1401,212.9007,1296.7975,212.2432,1291.179,209.8,1300.72" style="stroke:#181818;stroke-width:1.0;"/><text fill="#000000" font-family="sans-serif" font-size="13" lengthAdjust="spacing" textLength="141.2163" x="249.5" y="1267.0669">Conversaci&#243;n privada</text><text fill="#000000" font-family="sans-serif" font-size="13" lengthAdjust="spacing" textLength="8.271" x="206.6861" y="1289.862">1</text></g><!--link Chat to Mensaje--><g id="link_Chat_Mensaje"><path codeLine="106" d="M161.5,1430.14 C161.5,1454.84 161.5,1476.88 161.5,1500.77 " fill="none" id="Chat-to-Mensaje" style="stroke:#181818;stroke-width:1.0;"/><polygon fill="#181818" points="161.5,1506.77,165.5,1497.77,161.5,1501.77,157.5,1497.77,161.5,1506.77" style="stroke:#181818;stroke-width:1.0;"/><text fill="#000000" font-family="sans-serif" font-size="13" lengthAdjust="spacing" textLength="58.2144" x="162.5" y="1473.0669">Contiene</text><text fill="#000000" font-family="sans-serif" font-size="13" lengthAdjust="spacing" textLength="23.0356" x="137.0762" y="1496.0055">1..*</text></g><!--SRC=[bLN9RXH13BttLvHoca0c8XnRqKX34Y6aH8f0d107JxSpCNHNjMgPGu2FGdn2VWpNqkjiIGuJTVcLxMS_kueAZ15VZGDDIlpA1F-zfJ8NNwmckOxVKjKhZUCph86gyL6XfDLWyFalZ0rEqWQreH8cZX-KLVUe7wQUI5hKQD3aufQClOosHJIMe6_f9yvSJ3flip_DnKPHsO6koLH7SPpN7TZY4StiD0KBtobMeH7qH-qQDHiNuKoKQ0fDJK5AjeVi8M0xrjhWShRsHyaoYcsW8dsD-m4X-iq6fLKZq9aO9yEN8YhxasL5wAYlqBvsfeBSr6IKxieoidt60XkxPQsTTPp41wKg1Db72oKx4gxjPNAu4D_UVqyq7y7cuef_Uu-1vslqkACTqT1esa2nhRsQaBrifHMDKDOa-LX3gJJknc0eUMkB3LZqZ3m3g1Als6zLKK7MbRsksvDFSirXkkZyiGPz5pCyB62DjV8YVWcsqIg0bqDsUwzqlOZKNjEC1-GAvE8QB2ODhAY07RrnAox0G56Hlk7SEEIUkiUvEimqZDPXI06om0hqR8ll5LbesRw02TzB5RhyFP_7sxb08vo4rkMqqKTcPJ9sQ2ntQem4Fw23x9COEDkddPnOXQySq3GcA0tyw5fn5p_R4P0ROft6ivdV_oYfptIIMwCqPvpS7vTTShilwwreyTXIxSjLDyEcWHljiYx4FKyFkNfV24lDnBjn3ORNX-l1ZrJI25MM5ybo0_A9-yIc5SlPHsdVrVby8KxUdP-_EOcBcVUrhrmMFhon1UQYtRozBIvNNlqeKOCmvBKLDl6M_ukJZXBdxVn6j1FKHSWYo85tavB-OMOzF_-JMTov4TL3_Bzrs6KZG72JNft1UIGvbNix88EhFUDbD-vPfEfHQOhk7POeh6S-C0xJ6p8GOTUNa0NZ85WhfO2tnEx-0m00]--></g></svg>