<svg xmlns="http://www.w3.org/2000/svg" xmlns:xlink="http://www.w3.org/1999/xlink" contentStyleType="text/css" height="2016px" preserveAspectRatio="none" style="width:1276px;height:2016px;background:#FFFFFF;" version="1.1" viewBox="0 0 1276 2016" width="1276px" zoomAndPan="magnify"><defs/><g><ellipse cx="651.4512" cy="20" fill="#222222" rx="10" ry="10" style="stroke:#222222;stroke-width:1.0;"/><rect fill="#F1F1F1" height="33.9688" rx="12.5" ry="12.5" style="stroke:#181818;stroke-width:0.5;" width="210.8105" x="546.0459" y="50"/><text fill="#000000" font-family="sans-serif" font-size="12" lengthAdjust="spacing" textLength="190.8105" x="556.0459" y="71.1387">Splash (Pantalla de Bienvenida)</text><polygon fill="#F1F1F1" points="585.1021,103.9688,717.8003,103.9688,729.8003,115.9688,717.8003,127.9688,585.1021,127.9688,573.1021,115.9688,585.1021,103.9688" style="stroke:#181818;stroke-width:0.5;"/><text fill="#000000" font-family="sans-serif" font-size="11" lengthAdjust="spacing" textLength="132.6982" x="585.1021" y="119.7769">&#191;Primera vez en la App?</text><text fill="#000000" font-family="sans-serif" font-size="11" lengthAdjust="spacing" textLength="10.0386" x="563.0635" y="113.3745">S&#237;</text><text fill="#000000" font-family="sans-serif" font-size="11" lengthAdjust="spacing" textLength="14.9585" x="729.8003" y="113.3745">No</text><rect fill="#F1F1F1" height="33.9688" rx="12.5" ry="12.5" style="stroke:#181818;stroke-width:0.5;" width="178.4727" x="421.7959" y="137.9688"/><text fill="#000000" font-family="sans-serif" font-size="12" lengthAdjust="spacing" textLength="158.4727" x="431.7959" y="159.1074">Onboarding (Introducci&#243;n)</text><rect fill="#F1F1F1" height="33.9688" rx="12.5" ry="12.5" style="stroke:#181818;stroke-width:0.5;" width="260.8379" x="380.6133" y="191.9375"/><text fill="#000000" font-family="sans-serif" font-size="12" lengthAdjust="spacing" textLength="240.8379" x="390.6133" y="213.0762">Seleccionar: Iniciar Sesi&#243;n o Registrarse</text><rect fill="#F1F1F1" height="33.9688" rx="12.5" ry="12.5" style="stroke:#181818;stroke-width:0.5;" width="260.8379" x="661.4512" y="137.9688"/><text fill="#000000" font-family="sans-serif" font-size="12" lengthAdjust="spacing" textLength="240.8379" x="671.4512" y="159.1074">Seleccionar: Iniciar Sesi&#243;n o Registrarse</text><polygon fill="#F1F1F1" points="651.4512,231.9063,663.4512,243.9063,651.4512,255.9063,639.4512,243.9063,651.4512,231.9063" style="stroke:#181818;stroke-width:0.5;"/><polygon fill="#F1F1F1" points="610.2119,275.9063,692.6904,275.9063,704.6904,287.9063,692.6904,299.9063,610.2119,299.9063,598.2119,287.9063,610.2119,275.9063" style="stroke:#181818;stroke-width:0.5;"/><text fill="#000000" font-family="sans-serif" font-size="11" lengthAdjust="spacing" textLength="82.4785" x="610.2119" y="291.7144">Opci&#243;n Elegida</text><text fill="#000000" font-family="sans-serif" font-size="11" lengthAdjust="spacing" textLength="73.3745" x="524.8374" y="285.312">Iniciar Sesi&#243;n</text><text fill="#000000" font-family="sans-serif" font-size="11" lengthAdjust="spacing" textLength="62.7773" x="704.6904" y="285.312">Registrarse</text><rect fill="#F1F1F1" height="33.9688" rx="12.5" ry="12.5" style="stroke:#181818;stroke-width:0.5;" width="170.9492" x="458.4595" y="309.9063"/><text fill="#000000" font-family="sans-serif" font-size="12" lengthAdjust="spacing" textLength="150.9492" x="468.4595" y="331.0449">Pantalla de Iniciar Sesi&#243;n</text><rect fill="#F1F1F1" height="33.9688" rx="12.5" ry="12.5" style="stroke:#181818;stroke-width:0.5;" width="176.0645" x="455.9019" y="363.875"/><text fill="#000000" font-family="sans-serif" font-size="12" lengthAdjust="spacing" textLength="156.0645" x="465.9019" y="385.0137">-&gt; :Home (Matchmaking);</text><rect fill="#F1F1F1" height="33.9688" rx="12.5" ry="12.5" style="stroke:#181818;stroke-width:0.5;" width="140.8086" x="688.564" y="309.9063"/><text fill="#000000" font-family="sans-serif" font-size="12" lengthAdjust="spacing" textLength="120.8086" x="698.564" y="331.0449">Pantalla de Registro</text><rect fill="#F1F1F1" height="33.9688" rx="12.5" ry="12.5" style="stroke:#181818;stroke-width:0.5;" width="214.0039" x="651.9663" y="363.875"/><text fill="#000000" font-family="sans-serif" font-size="12" lengthAdjust="spacing" textLength="194.0039" x="661.9663" y="385.0137">Verificaci&#243;n de Correo/Identidad</text><rect fill="#F1F1F1" height="33.9688" rx="12.5" ry="12.5" style="stroke:#181818;stroke-width:0.5;" width="126.002" x="695.9673" y="417.8438"/><text fill="#000000" font-family="sans-serif" font-size="12" lengthAdjust="spacing" textLength="106.002" x="705.9673" y="438.9824">Creaci&#243;n de Perfil</text><rect fill="#F1F1F1" height="33.9688" rx="12.5" ry="12.5" style="stroke:#181818;stroke-width:0.5;" width="204.3008" x="656.8179" y="471.8125"/><text fill="#000000" font-family="sans-serif" font-size="12" lengthAdjust="spacing" textLength="184.3008" x="666.8179" y="492.9512">Tutorial R&#225;pido (Post-Registro)</text><rect fill="#F1F1F1" height="33.9688" rx="12.5" ry="12.5" style="stroke:#181818;stroke-width:0.5;" width="176.0645" x="670.936" y="525.7813"/><text fill="#000000" font-family="sans-serif" font-size="12" lengthAdjust="spacing" textLength="156.0645" x="680.936" y="546.9199">-&gt; :Home (Matchmaking);</text><polygon fill="#F1F1F1" points="651.4512,565.75,663.4512,577.75,651.4512,589.75,639.4512,577.75,651.4512,565.75" style="stroke:#181818;stroke-width:0.5;"/><rect fill="#F1F1F1" height="33.9688" rx="12.5" ry="12.5" style="stroke:#181818;stroke-width:0.5;" width="196.7129" x="553.0947" y="665.4604"/><text fill="#000000" font-family="sans-serif" font-size="12" lengthAdjust="spacing" textLength="176.7129" x="563.0947" y="686.5991">Ver Perfiles y Dar Like/Dislike</text><polygon fill="#F1F1F1" points="615.4648,719.4292,687.4375,719.4292,699.4375,731.4292,687.4375,743.4292,615.4648,743.4292,603.4648,731.4292,615.4648,719.4292" style="stroke:#181818;stroke-width:0.5;"/><text fill="#000000" font-family="sans-serif" font-size="11" lengthAdjust="spacing" textLength="71.9727" x="615.4648" y="735.2373">&#191;Like Mutuo?</text><text fill="#000000" font-family="sans-serif" font-size="11" lengthAdjust="spacing" textLength="10.0386" x="593.4263" y="728.835">S&#237;</text><text fill="#000000" font-family="sans-serif" font-size="11" lengthAdjust="spacing" textLength="14.9585" x="699.4375" y="728.835">No</text><rect fill="#F1F1F1" height="33.9688" rx="12.5" ry="12.5" style="stroke:#181818;stroke-width:0.5;" width="174.9922" x="434.8491" y="753.4292"/><text fill="#000000" font-family="sans-serif" font-size="12" lengthAdjust="spacing" textLength="154.9922" x="444.8491" y="774.5679">Pantalla de Match Exitoso</text><polygon fill="#F1F1F1" points="485.0859,812.0112,559.6045,812.0112,571.6045,824.0112,559.6045,836.0112,485.0859,836.0112,473.0859,824.0112,485.0859,812.0112" style="stroke:#181818;stroke-width:0.5;"/><text fill="#000000" font-family="sans-serif" font-size="11" lengthAdjust="spacing" textLength="74.5186" x="485.0859" y="827.8193">&#191;Iniciar Chat?</text><text fill="#000000" font-family="sans-serif" font-size="11" lengthAdjust="spacing" textLength="10.0386" x="463.0474" y="821.417">S&#237;</text><text fill="#000000" font-family="sans-serif" font-size="11" lengthAdjust="spacing" textLength="14.9585" x="571.6045" y="821.417">No</text><rect fill="#F1F1F1" height="33.9688" rx="12.5" ry="12.5" style="stroke:#181818;stroke-width:0.5;" width="188.2578" x="336.9224" y="846.0112"/><text fill="#000000" font-family="sans-serif" font-size="12" lengthAdjust="spacing" textLength="168.2578" x="346.9224" y="867.1499">Chat Privado (Desde Match)</text><rect fill="#F1F1F1" height="33.9688" rx="12.5" ry="12.5" style="stroke:#181818;stroke-width:0.5;" width="136.918" x="545.1802" y="846.0112"/><text fill="#000000" font-family="sans-serif" font-size="12" lengthAdjust="spacing" textLength="116.918" x="555.1802" y="867.1499">Continuar en Home</text><polygon fill="#F1F1F1" points="522.3452,885.98,534.3452,897.98,522.3452,909.98,510.3452,897.98,522.3452,885.98" style="stroke:#181818;stroke-width:0.5;"/><rect fill="#F1F1F1" height="33.9688" rx="12.5" ry="12.5" style="stroke:#181818;stroke-width:0.5;" width="136.918" x="712.0981" y="753.4292"/><text fill="#000000" font-family="sans-serif" font-size="12" lengthAdjust="spacing" textLength="116.918" x="722.0981" y="774.5679">Continuar en Home</text><polygon fill="#F1F1F1" points="651.4512,915.98,663.4512,927.98,651.4512,939.98,639.4512,927.98,651.4512,915.98" style="stroke:#181818;stroke-width:0.5;"/><polygon fill="#F1F1F1" points="601.5967,609.75,701.3057,609.75,713.3057,621.75,701.3057,633.75,601.5967,633.75,589.5967,621.75,601.5967,609.75" style="stroke:#181818;stroke-width:0.5;"/><text fill="#000000" font-family="sans-serif" font-size="11" lengthAdjust="spacing" textLength="10.0386" x="655.4512" y="643.9604">S&#237;</text><text fill="#000000" font-family="sans-serif" font-size="11" lengthAdjust="spacing" textLength="99.709" x="601.5967" y="625.5581">Navegar en Home</text><rect fill="#555555" height="6" rx="2.5" ry="2.5" style="stroke:#555555;stroke-width:1.0;" width="1254.9023" x="11" y="981.98"/><rect fill="#F1F1F1" height="33.9688" rx="12.5" ry="12.5" style="stroke:#181818;stroke-width:0.5;" width="223.6602" x="142.1421" y="1098.9175"/><text fill="#000000" font-family="sans-serif" font-size="12" lengthAdjust="spacing" textLength="203.6602" x="152.1421" y="1120.0562">Acceder a Grupos y Comunidades</text><rect fill="#F1F1F1" height="33.9688" rx="12.5" ry="12.5" style="stroke:#181818;stroke-width:0.5;" width="164.6328" x="171.6558" y="1167.8862"/><text fill="#000000" font-family="sans-serif" font-size="12" lengthAdjust="spacing" textLength="144.6328" x="181.6558" y="1189.0249">-&gt; :Ver Lista de Grupos;</text><polygon fill="#F1F1F1" points="206.8516,1236.855,301.0928,1236.855,313.0928,1248.855,301.0928,1260.855,206.8516,1260.855,194.8516,1248.855,206.8516,1236.855" style="stroke:#181818;stroke-width:0.5;"/><text fill="#000000" font-family="sans-serif" font-size="11" lengthAdjust="spacing" textLength="94.2412" x="206.8516" y="1252.6631">&#191;Unirse a Grupo?</text><text fill="#000000" font-family="sans-serif" font-size="11" lengthAdjust="spacing" textLength="10.0386" x="184.813" y="1246.2607">S&#237;</text><text fill="#000000" font-family="sans-serif" font-size="11" lengthAdjust="spacing" textLength="14.9585" x="313.0928" y="1246.2607">No</text><rect fill="#F1F1F1" height="33.9688" rx="12.5" ry="12.5" style="stroke:#181818;stroke-width:0.5;" width="218.252" x="23" y="1270.855"/><text fill="#000000" font-family="sans-serif" font-size="12" lengthAdjust="spacing" textLength="198.252" x="33" y="1291.9937">Unirse o Enviar Solicitud a Grupo</text><rect fill="#F1F1F1" height="33.9688" rx="12.5" ry="12.5" style="stroke:#181818;stroke-width:0.5;" width="116.3398" x="73.9561" y="1339.8237"/><text fill="#000000" font-family="sans-serif" font-size="12" lengthAdjust="spacing" textLength="96.3398" x="83.9561" y="1360.9624">Ver Chat Grupal</text><rect fill="#F1F1F1" height="33.9688" rx="12.5" ry="12.5" style="stroke:#181818;stroke-width:0.5;" width="229.1328" x="261.252" y="1270.855"/><text fill="#000000" font-family="sans-serif" font-size="12" lengthAdjust="spacing" textLength="209.1328" x="271.252" y="1291.9937">Regresar a Grupos y Comunidades</text><polygon fill="#F1F1F1" points="253.9722,1379.7925,265.9722,1391.7925,253.9722,1403.7925,241.9722,1391.7925,253.9722,1379.7925" style="stroke:#181818;stroke-width:0.5;"/><rect fill="#F1F1F1" height="33.9688" rx="12.5" ry="12.5" style="stroke:#181818;stroke-width:0.5;" width="216.3125" x="566.4883" y="1199.8862"/><text fill="#000000" font-family="sans-serif" font-size="12" lengthAdjust="spacing" textLength="196.3125" x="576.4883" y="1221.0249">Acceder a Lista de Chats Activos</text><rect fill="#F1F1F1" height="33.9688" rx="12.5" ry="12.5" style="stroke:#181818;stroke-width:0.5;" width="292.5195" x="528.3848" y="1268.855"/><text fill="#000000" font-family="sans-serif" font-size="12" lengthAdjust="spacing" textLength="272.5195" x="538.3848" y="1289.9937">-&gt; :Iniciar o Continuar Chat Privado o Grupal;</text><rect fill="#F1F1F1" height="33.9688" rx="12.5" ry="12.5" style="stroke:#181818;stroke-width:0.5;" width="169.4023" x="853.1611" y="1061.9487"/><text fill="#000000" font-family="sans-serif" font-size="12" lengthAdjust="spacing" textLength="149.4023" x="863.1611" y="1083.0874">Acceder a Perfil Personal</text><rect fill="#F1F1F1" height="33.9688" rx="12.5" ry="12.5" style="stroke:#181818;stroke-width:0.5;" width="116.0703" x="879.8271" y="1130.9175"/><text fill="#000000" font-family="sans-serif" font-size="12" lengthAdjust="spacing" textLength="96.0703" x="889.8271" y="1152.0562">-&gt; :Editar Perfil;</text><rect fill="#F1F1F1" height="33.9688" rx="12.5" ry="12.5" style="stroke:#181818;stroke-width:0.5;" width="166.9766" x="854.374" y="1199.8862"/><text fill="#000000" font-family="sans-serif" font-size="12" lengthAdjust="spacing" textLength="146.9766" x="864.374" y="1221.0249">Acceder a Configuraci&#243;n</text><rect fill="#F1F1F1" height="33.9688" rx="12.5" ry="12.5" style="stroke:#181818;stroke-width:0.5;" width="177.916" x="848.9043" y="1268.855"/><text fill="#000000" font-family="sans-serif" font-size="12" lengthAdjust="spacing" textLength="157.916" x="858.9043" y="1289.9937">-&gt; :Privacidad y Permisos;</text><rect fill="#F1F1F1" height="33.9688" rx="12.5" ry="12.5" style="stroke:#181818;stroke-width:0.5;" width="152.2461" x="861.7393" y="1337.8237"/><text fill="#000000" font-family="sans-serif" font-size="12" lengthAdjust="spacing" textLength="132.2461" x="871.7393" y="1358.9624">-&gt; :Pantalla Premium;</text><rect fill="#F1F1F1" height="33.9688" rx="12.5" ry="12.5" style="stroke:#181818;stroke-width:0.5;" width="125.5391" x="875.0928" y="1406.7925"/><text fill="#000000" font-family="sans-serif" font-size="12" lengthAdjust="spacing" textLength="105.5391" x="885.0928" y="1427.9312">-&gt; :Monetizaci&#243;n;</text><rect fill="#F1F1F1" height="33.9688" rx="12.5" ry="12.5" style="stroke:#181818;stroke-width:0.5;" width="131.6738" x="1072.5244" y="1007.98"/><text fill="#000000" font-family="sans-serif" font-size="12" lengthAdjust="spacing" textLength="111.6738" x="1082.5244" y="1029.1187">Acceder a Eventos</text><rect fill="#F1F1F1" height="33.9688" rx="12.5" ry="12.5" style="stroke:#181818;stroke-width:0.5;" width="169.5547" x="1053.584" y="1068.5972"/><text fill="#000000" font-family="sans-serif" font-size="12" lengthAdjust="spacing" textLength="149.5547" x="1063.584" y="1089.7358">-&gt; :Ver Lista de Eventos;</text><rect fill="#F1F1F1" height="33.9688" rx="12.5" ry="12.5" style="stroke:#181818;stroke-width:0.5;" width="149.0117" x="1063.8555" y="1185.9683"/><text fill="#000000" font-family="sans-serif" font-size="12" lengthAdjust="spacing" textLength="129.0117" x="1073.8555" y="1207.1069">Crear o Editar Evento</text><polygon fill="#F1F1F1" points="1078.4011,1137.5659,1198.3215,1137.5659,1210.3215,1149.5659,1198.3215,1161.5659,1078.4011,1161.5659,1066.4011,1149.5659,1078.4011,1137.5659" style="stroke:#181818;stroke-width:0.5;"/><text fill="#000000" font-family="sans-serif" font-size="11" lengthAdjust="spacing" textLength="10.0386" x="1142.3613" y="1171.7764">S&#237;</text><text fill="#000000" font-family="sans-serif" font-size="11" lengthAdjust="spacing" textLength="119.9204" x="1078.4011" y="1153.374">&#191;Crear/Editar Evento?</text><polygon fill="#F1F1F1" points="1138.3613,1244.3394,1150.3613,1256.3394,1138.3613,1268.3394,1126.3613,1256.3394,1138.3613,1244.3394" style="stroke:#181818;stroke-width:0.5;"/><rect fill="#F1F1F1" height="33.9688" rx="12.5" ry="12.5" style="stroke:#181818;stroke-width:0.5;" width="183.957" x="1046.3828" y="1303.3394"/><text fill="#000000" font-family="sans-serif" font-size="12" lengthAdjust="spacing" textLength="163.957" x="1056.3828" y="1324.478">-&gt; :Ver Detalles de Evento;</text><rect fill="#F1F1F1" height="33.9688" rx="12.5" ry="12.5" style="stroke:#181818;stroke-width:0.5;" width="203.082" x="1036.8203" y="1420.7104"/><text fill="#000000" font-family="sans-serif" font-size="12" lengthAdjust="spacing" textLength="183.082" x="1046.8203" y="1441.8491">Gestionar Asistencia al Evento</text><polygon fill="#F1F1F1" points="1064.9116,1372.3081,1211.811,1372.3081,1223.811,1384.3081,1211.811,1396.3081,1064.9116,1396.3081,1052.9116,1384.3081,1064.9116,1372.3081" style="stroke:#181818;stroke-width:0.5;"/><text fill="#000000" font-family="sans-serif" font-size="11" lengthAdjust="spacing" textLength="10.0386" x="1142.3613" y="1406.5186">S&#237;</text><text fill="#000000" font-family="sans-serif" font-size="11" lengthAdjust="spacing" textLength="146.8994" x="1064.9116" y="1388.1162">&#191;Unirse o Salir del Evento?</text><polygon fill="#F1F1F1" points="1138.3613,1474.6792,1150.3613,1486.6792,1138.3613,1498.6792,1126.3613,1486.6792,1138.3613,1474.6792" style="stroke:#181818;stroke-width:0.5;"/><rect fill="#555555" height="6" rx="2.5" ry="2.5" style="stroke:#555555;stroke-width:1.0;" width="1254.9023" x="11" y="1518.6792"/><rect fill="#F1F1F1" height="33.9688" rx="12.5" ry="12.5" style="stroke:#181818;stroke-width:0.5;" width="224.375" x="539.2637" y="1593.0815"/><text fill="#000000" font-family="sans-serif" font-size="12" lengthAdjust="spacing" textLength="204.375" x="549.2637" y="1614.2202">Pantalla de Reporte de Problemas</text><polygon fill="#F1F1F1" points="619.5388,1544.6792,683.3635,1544.6792,695.3635,1556.6792,683.3635,1568.6792,619.5388,1568.6792,607.5388,1556.6792,619.5388,1544.6792" style="stroke:#181818;stroke-width:0.5;"/><text fill="#000000" font-family="sans-serif" font-size="11" lengthAdjust="spacing" textLength="10.0386" x="655.4512" y="1578.8896">S&#237;</text><text fill="#000000" font-family="sans-serif" font-size="11" lengthAdjust="spacing" textLength="63.8247" x="619.5388" y="1560.4873">&#191;Problema?</text><polygon fill="#F1F1F1" points="651.4512,1647.0503,663.4512,1659.0503,651.4512,1671.0503,639.4512,1659.0503,651.4512,1647.0503" style="stroke:#181818;stroke-width:0.5;"/><rect fill="#F1F1F1" height="33.9688" rx="12.5" ry="12.5" style="stroke:#181818;stroke-width:0.5;" width="232.5254" x="535.1885" y="1739.4526"/><text fill="#000000" font-family="sans-serif" font-size="12" lengthAdjust="spacing" textLength="212.5254" x="545.1885" y="1760.5913">Pantalla de Mantenimiento / Offline</text><polygon fill="#F1F1F1" points="609.6506,1691.0503,693.2517,1691.0503,705.2517,1703.0503,693.2517,1715.0503,609.6506,1715.0503,597.6506,1703.0503,609.6506,1691.0503" style="stroke:#181818;stroke-width:0.5;"/><text fill="#000000" font-family="sans-serif" font-size="11" lengthAdjust="spacing" textLength="10.0386" x="655.4512" y="1725.2607">S&#237;</text><text fill="#000000" font-family="sans-serif" font-size="11" lengthAdjust="spacing" textLength="83.6011" x="609.6506" y="1706.8584">&#191;Sin Conexi&#243;n?</text><polygon fill="#F1F1F1" points="651.4512,1793.4214,663.4512,1805.4214,651.4512,1817.4214,639.4512,1805.4214,651.4512,1793.4214" style="stroke:#181818;stroke-width:0.5;"/><rect fill="#F1F1F1" height="33.9688" rx="12.5" ry="12.5" style="stroke:#181818;stroke-width:0.5;" width="278.7266" x="512.0879" y="1885.8237"/><text fill="#000000" font-family="sans-serif" font-size="12" lengthAdjust="spacing" textLength="258.7266" x="522.0879" y="1906.9624">Pantalla de Error (404 / Red No Disponible)</text><polygon fill="#F1F1F1" points="602.1848,1837.4214,700.7175,1837.4214,712.7175,1849.4214,700.7175,1861.4214,602.1848,1861.4214,590.1848,1849.4214,602.1848,1837.4214" style="stroke:#181818;stroke-width:0.5;"/><text fill="#000000" font-family="sans-serif" font-size="11" lengthAdjust="spacing" textLength="10.0386" x="655.4512" y="1871.6318">S&#237;</text><text fill="#000000" font-family="sans-serif" font-size="11" lengthAdjust="spacing" textLength="98.5327" x="602.1848" y="1853.2295">&#191;Error 404 o Red?</text><polygon fill="#F1F1F1" points="651.4512,1939.7925,663.4512,1951.7925,651.4512,1963.7925,639.4512,1951.7925,651.4512,1939.7925" style="stroke:#181818;stroke-width:0.5;"/><ellipse cx="651.4512" cy="1994.7925" fill="none" rx="11" ry="11" style="stroke:#222222;stroke-width:1.0;"/><ellipse cx="651.4512" cy="1994.7925" fill="#222222" rx="6" ry="6" style="stroke:#222222;stroke-width:1.0;"/><line style="stroke:#181818;stroke-width:1.0;" x1="651.4512" x2="651.4512" y1="30" y2="50"/><polygon fill="#181818" points="647.4512,40,651.4512,50,655.4512,40,651.4512,44" style="stroke:#181818;stroke-width:1.0;"/><line style="stroke:#181818;stroke-width:1.0;" x1="511.0322" x2="511.0322" y1="171.9375" y2="191.9375"/><polygon fill="#181818" points="507.0322,181.9375,511.0322,191.9375,515.0322,181.9375,511.0322,185.9375" style="stroke:#181818;stroke-width:1.0;"/><line style="stroke:#181818;stroke-width:1.0;" x1="573.1021" x2="511.0322" y1="115.9688" y2="115.9688"/><line style="stroke:#181818;stroke-width:1.0;" x1="511.0322" x2="511.0322" y1="115.9688" y2="137.9688"/><polygon fill="#181818" points="507.0322,127.9688,511.0322,137.9688,515.0322,127.9688,511.0322,131.9688" style="stroke:#181818;stroke-width:1.0;"/><line style="stroke:#181818;stroke-width:1.0;" x1="729.8003" x2="791.8701" y1="115.9688" y2="115.9688"/><line style="stroke:#181818;stroke-width:1.0;" x1="791.8701" x2="791.8701" y1="115.9688" y2="137.9688"/><polygon fill="#181818" points="787.8701,127.9688,791.8701,137.9688,795.8701,127.9688,791.8701,131.9688" style="stroke:#181818;stroke-width:1.0;"/><line style="stroke:#181818;stroke-width:1.0;" x1="511.0322" x2="511.0322" y1="225.9063" y2="243.9063"/><line style="stroke:#181818;stroke-width:1.0;" x1="511.0322" x2="639.4512" y1="243.9063" y2="243.9063"/><polygon fill="#181818" points="629.4512,239.9063,639.4512,243.9063,629.4512,247.9063,633.4512,243.9063" style="stroke:#181818;stroke-width:1.0;"/><line style="stroke:#181818;stroke-width:1.0;" x1="791.8701" x2="791.8701" y1="171.9375" y2="243.9063"/><line style="stroke:#181818;stroke-width:1.0;" x1="791.8701" x2="663.4512" y1="243.9063" y2="243.9063"/><polygon fill="#181818" points="673.4512,239.9063,663.4512,243.9063,673.4512,247.9063,669.4512,243.9063" style="stroke:#181818;stroke-width:1.0;"/><line style="stroke:#181818;stroke-width:1.0;" x1="651.4512" x2="651.4512" y1="83.9688" y2="103.9688"/><polygon fill="#181818" points="647.4512,93.9688,651.4512,103.9688,655.4512,93.9688,651.4512,97.9688" style="stroke:#181818;stroke-width:1.0;"/><line style="stroke:#181818;stroke-width:1.0;" x1="543.9341" x2="543.9341" y1="343.875" y2="363.875"/><polygon fill="#181818" points="539.9341,353.875,543.9341,363.875,547.9341,353.875,543.9341,357.875" style="stroke:#181818;stroke-width:1.0;"/><line style="stroke:#181818;stroke-width:1.0;" x1="758.9683" x2="758.9683" y1="343.875" y2="363.875"/><polygon fill="#181818" points="754.9683,353.875,758.9683,363.875,762.9683,353.875,758.9683,357.875" style="stroke:#181818;stroke-width:1.0;"/><line style="stroke:#181818;stroke-width:1.0;" x1="758.9683" x2="758.9683" y1="397.8438" y2="417.8438"/><polygon fill="#181818" points="754.9683,407.8438,758.9683,417.8438,762.9683,407.8438,758.9683,411.8438" style="stroke:#181818;stroke-width:1.0;"/><line style="stroke:#181818;stroke-width:1.0;" x1="758.9683" x2="758.9683" y1="451.8125" y2="471.8125"/><polygon fill="#181818" points="754.9683,461.8125,758.9683,471.8125,762.9683,461.8125,758.9683,465.8125" style="stroke:#181818;stroke-width:1.0;"/><line style="stroke:#181818;stroke-width:1.0;" x1="758.9683" x2="758.9683" y1="505.7813" y2="525.7813"/><polygon fill="#181818" points="754.9683,515.7813,758.9683,525.7813,762.9683,515.7813,758.9683,519.7813" style="stroke:#181818;stroke-width:1.0;"/><line style="stroke:#181818;stroke-width:1.0;" x1="598.2119" x2="543.9341" y1="287.9063" y2="287.9063"/><line style="stroke:#181818;stroke-width:1.0;" x1="543.9341" x2="543.9341" y1="287.9063" y2="309.9063"/><polygon fill="#181818" points="539.9341,299.9063,543.9341,309.9063,547.9341,299.9063,543.9341,303.9063" style="stroke:#181818;stroke-width:1.0;"/><line style="stroke:#181818;stroke-width:1.0;" x1="704.6904" x2="758.9683" y1="287.9063" y2="287.9063"/><line style="stroke:#181818;stroke-width:1.0;" x1="758.9683" x2="758.9683" y1="287.9063" y2="309.9063"/><polygon fill="#181818" points="754.9683,299.9063,758.9683,309.9063,762.9683,299.9063,758.9683,303.9063" style="stroke:#181818;stroke-width:1.0;"/><line style="stroke:#181818;stroke-width:1.0;" x1="543.9341" x2="543.9341" y1="397.8438" y2="577.75"/><line style="stroke:#181818;stroke-width:1.0;" x1="543.9341" x2="639.4512" y1="577.75" y2="577.75"/><polygon fill="#181818" points="629.4512,573.75,639.4512,577.75,629.4512,581.75,633.4512,577.75" style="stroke:#181818;stroke-width:1.0;"/><line style="stroke:#181818;stroke-width:1.0;" x1="758.9683" x2="758.9683" y1="559.75" y2="577.75"/><line style="stroke:#181818;stroke-width:1.0;" x1="758.9683" x2="663.4512" y1="577.75" y2="577.75"/><polygon fill="#181818" points="673.4512,573.75,663.4512,577.75,673.4512,581.75,669.4512,577.75" style="stroke:#181818;stroke-width:1.0;"/><line style="stroke:#181818;stroke-width:1.0;" x1="651.4512" x2="651.4512" y1="255.9063" y2="275.9063"/><polygon fill="#181818" points="647.4512,265.9063,651.4512,275.9063,655.4512,265.9063,651.4512,269.9063" style="stroke:#181818;stroke-width:1.0;"/><line style="stroke:#181818;stroke-width:1.0;" x1="473.0859" x2="431.0513" y1="824.0112" y2="824.0112"/><line style="stroke:#181818;stroke-width:1.0;" x1="431.0513" x2="431.0513" y1="824.0112" y2="846.0112"/><polygon fill="#181818" points="427.0513,836.0112,431.0513,846.0112,435.0513,836.0112,431.0513,840.0112" style="stroke:#181818;stroke-width:1.0;"/><line style="stroke:#181818;stroke-width:1.0;" x1="571.6045" x2="613.6392" y1="824.0112" y2="824.0112"/><line style="stroke:#181818;stroke-width:1.0;" x1="613.6392" x2="613.6392" y1="824.0112" y2="846.0112"/><polygon fill="#181818" points="609.6392,836.0112,613.6392,846.0112,617.6392,836.0112,613.6392,840.0112" style="stroke:#181818;stroke-width:1.0;"/><line style="stroke:#181818;stroke-width:1.0;" x1="431.0513" x2="431.0513" y1="879.98" y2="897.98"/><line style="stroke:#181818;stroke-width:1.0;" x1="431.0513" x2="510.3452" y1="897.98" y2="897.98"/><polygon fill="#181818" points="500.3452,893.98,510.3452,897.98,500.3452,901.98,504.3452,897.98" style="stroke:#181818;stroke-width:1.0;"/><line style="stroke:#181818;stroke-width:1.0;" x1="613.6392" x2="613.6392" y1="879.98" y2="897.98"/><line style="stroke:#181818;stroke-width:1.0;" x1="613.6392" x2="534.3452" y1="897.98" y2="897.98"/><polygon fill="#181818" points="544.3452,893.98,534.3452,897.98,544.3452,901.98,540.3452,897.98" style="stroke:#181818;stroke-width:1.0;"/><line style="stroke:#181818;stroke-width:1.0;" x1="522.3452" x2="522.3452" y1="787.3979" y2="812.0112"/><polygon fill="#181818" points="518.3452,802.0112,522.3452,812.0112,526.3452,802.0112,522.3452,806.0112" style="stroke:#181818;stroke-width:1.0;"/><line style="stroke:#181818;stroke-width:1.0;" x1="603.4648" x2="522.3452" y1="731.4292" y2="731.4292"/><line style="stroke:#181818;stroke-width:1.0;" x1="522.3452" x2="522.3452" y1="731.4292" y2="753.4292"/><polygon fill="#181818" points="518.3452,743.4292,522.3452,753.4292,526.3452,743.4292,522.3452,747.4292" style="stroke:#181818;stroke-width:1.0;"/><line style="stroke:#181818;stroke-width:1.0;" x1="699.4375" x2="780.5571" y1="731.4292" y2="731.4292"/><line style="stroke:#181818;stroke-width:1.0;" x1="780.5571" x2="780.5571" y1="731.4292" y2="753.4292"/><polygon fill="#181818" points="776.5571,743.4292,780.5571,753.4292,784.5571,743.4292,780.5571,747.4292" style="stroke:#181818;stroke-width:1.0;"/><line style="stroke:#181818;stroke-width:1.0;" x1="522.3452" x2="522.3452" y1="909.98" y2="927.98"/><line style="stroke:#181818;stroke-width:1.0;" x1="522.3452" x2="639.4512" y1="927.98" y2="927.98"/><polygon fill="#181818" points="629.4512,923.98,639.4512,927.98,629.4512,931.98,633.4512,927.98" style="stroke:#181818;stroke-width:1.0;"/><line style="stroke:#181818;stroke-width:1.0;" x1="780.5571" x2="780.5571" y1="787.3979" y2="927.98"/><line style="stroke:#181818;stroke-width:1.0;" x1="780.5571" x2="663.4512" y1="927.98" y2="927.98"/><polygon fill="#181818" points="673.4512,923.98,663.4512,927.98,673.4512,931.98,669.4512,927.98" style="stroke:#181818;stroke-width:1.0;"/><line style="stroke:#181818;stroke-width:1.0;" x1="651.4512" x2="651.4512" y1="699.4292" y2="719.4292"/><polygon fill="#181818" points="647.4512,709.4292,651.4512,719.4292,655.4512,709.4292,651.4512,713.4292" style="stroke:#181818;stroke-width:1.0;"/><line style="stroke:#181818;stroke-width:1.0;" x1="651.4512" x2="651.4512" y1="633.75" y2="665.4604"/><polygon fill="#181818" points="647.4512,655.4604,651.4512,665.4604,655.4512,655.4604,651.4512,659.4604" style="stroke:#181818;stroke-width:1.0;"/><line style="stroke:#181818;stroke-width:1.0;" x1="651.4512" x2="651.4512" y1="939.98" y2="949.98"/><line style="stroke:#181818;stroke-width:1.0;" x1="651.4512" x2="871.0161" y1="949.98" y2="949.98"/><polygon fill="#181818" points="867.0161,792.0112,871.0161,782.0112,875.0161,792.0112,871.0161,788.0112" style="stroke:#181818;stroke-width:1.0;"/><line style="stroke:#181818;stroke-width:1.0;" x1="871.0161" x2="871.0161" y1="621.75" y2="949.98"/><line style="stroke:#181818;stroke-width:1.0;" x1="871.0161" x2="713.3057" y1="621.75" y2="621.75"/><polygon fill="#181818" points="723.3057,617.75,713.3057,621.75,723.3057,625.75,719.3057,621.75" style="stroke:#181818;stroke-width:1.0;"/><line style="stroke:#181818;stroke-width:1.0;" x1="589.5967" x2="304.9224" y1="621.75" y2="621.75"/><polygon fill="#181818" points="300.9224,778.0112,304.9224,788.0112,308.9224,778.0112,304.9224,782.0112" style="stroke:#181818;stroke-width:1.0;"/><line style="stroke:#181818;stroke-width:1.0;" x1="304.9224" x2="304.9224" y1="621.75" y2="961.98"/><line style="stroke:#181818;stroke-width:1.0;" x1="304.9224" x2="651.4512" y1="961.98" y2="961.98"/><line style="stroke:#181818;stroke-width:1.0;" x1="651.4512" x2="651.4512" y1="961.98" y2="981.98"/><polygon fill="#181818" points="647.4512,971.98,651.4512,981.98,655.4512,971.98,651.4512,975.98" style="stroke:#181818;stroke-width:1.0;"/><line style="stroke:#181818;stroke-width:1.0;" x1="651.4512" x2="651.4512" y1="589.75" y2="609.75"/><polygon fill="#181818" points="647.4512,599.75,651.4512,609.75,655.4512,599.75,651.4512,603.75" style="stroke:#181818;stroke-width:1.0;"/><line style="stroke:#181818;stroke-width:1.0;" x1="253.9722" x2="253.9722" y1="1132.8862" y2="1167.8862"/><polygon fill="#181818" points="249.9722,1157.8862,253.9722,1167.8862,257.9722,1157.8862,253.9722,1161.8862" style="stroke:#181818;stroke-width:1.0;"/><line style="stroke:#181818;stroke-width:1.0;" x1="132.126" x2="132.126" y1="1304.8237" y2="1339.8237"/><polygon fill="#181818" points="128.126,1329.8237,132.126,1339.8237,136.126,1329.8237,132.126,1333.8237" style="stroke:#181818;stroke-width:1.0;"/><line style="stroke:#181818;stroke-width:1.0;" x1="194.8516" x2="132.126" y1="1248.855" y2="1248.855"/><line style="stroke:#181818;stroke-width:1.0;" x1="132.126" x2="132.126" y1="1248.855" y2="1270.855"/><polygon fill="#181818" points="128.126,1260.855,132.126,1270.855,136.126,1260.855,132.126,1264.855" style="stroke:#181818;stroke-width:1.0;"/><line style="stroke:#181818;stroke-width:1.0;" x1="313.0928" x2="375.8184" y1="1248.855" y2="1248.855"/><line style="stroke:#181818;stroke-width:1.0;" x1="375.8184" x2="375.8184" y1="1248.855" y2="1270.855"/><polygon fill="#181818" points="371.8184,1260.855,375.8184,1270.855,379.8184,1260.855,375.8184,1264.855" style="stroke:#181818;stroke-width:1.0;"/><line style="stroke:#181818;stroke-width:1.0;" x1="132.126" x2="132.126" y1="1373.7925" y2="1391.7925"/><line style="stroke:#181818;stroke-width:1.0;" x1="132.126" x2="241.9722" y1="1391.7925" y2="1391.7925"/><polygon fill="#181818" points="231.9722,1387.7925,241.9722,1391.7925,231.9722,1395.7925,235.9722,1391.7925" style="stroke:#181818;stroke-width:1.0;"/><line style="stroke:#181818;stroke-width:1.0;" x1="375.8184" x2="375.8184" y1="1304.8237" y2="1391.7925"/><line style="stroke:#181818;stroke-width:1.0;" x1="375.8184" x2="265.9722" y1="1391.7925" y2="1391.7925"/><polygon fill="#181818" points="275.9722,1387.7925,265.9722,1391.7925,275.9722,1395.7925,271.9722,1391.7925" style="stroke:#181818;stroke-width:1.0;"/><line style="stroke:#181818;stroke-width:1.0;" x1="253.9722" x2="253.9722" y1="1201.855" y2="1236.855"/><polygon fill="#181818" points="249.9722,1226.855,253.9722,1236.855,257.9722,1226.855,253.9722,1230.855" style="stroke:#181818;stroke-width:1.0;"/><line style="stroke:#181818;stroke-width:1.0;" x1="674.6445" x2="674.6445" y1="1233.855" y2="1268.855"/><polygon fill="#181818" points="670.6445,1258.855,674.6445,1268.855,678.6445,1258.855,674.6445,1262.855" style="stroke:#181818;stroke-width:1.0;"/><line style="stroke:#181818;stroke-width:1.0;" x1="937.8623" x2="937.8623" y1="1095.9175" y2="1130.9175"/><polygon fill="#181818" points="933.8623,1120.9175,937.8623,1130.9175,941.8623,1120.9175,937.8623,1124.9175" style="stroke:#181818;stroke-width:1.0;"/><line style="stroke:#181818;stroke-width:1.0;" x1="937.8623" x2="937.8623" y1="1164.8862" y2="1199.8862"/><polygon fill="#181818" points="933.8623,1189.8862,937.8623,1199.8862,941.8623,1189.8862,937.8623,1193.8862" style="stroke:#181818;stroke-width:1.0;"/><line style="stroke:#181818;stroke-width:1.0;" x1="937.8623" x2="937.8623" y1="1233.855" y2="1268.855"/><polygon fill="#181818" points="933.8623,1258.855,937.8623,1268.855,941.8623,1258.855,937.8623,1262.855" style="stroke:#181818;stroke-width:1.0;"/><line style="stroke:#181818;stroke-width:1.0;" x1="937.8623" x2="937.8623" y1="1302.8237" y2="1337.8237"/><polygon fill="#181818" points="933.8623,1327.8237,937.8623,1337.8237,941.8623,1327.8237,937.8623,1331.8237" style="stroke:#181818;stroke-width:1.0;"/><line style="stroke:#181818;stroke-width:1.0;" x1="937.8623" x2="937.8623" y1="1371.7925" y2="1406.7925"/><polygon fill="#181818" points="933.8623,1396.7925,937.8623,1406.7925,941.8623,1396.7925,937.8623,1400.7925" style="stroke:#181818;stroke-width:1.0;"/><line style="stroke:#181818;stroke-width:1.0;" x1="1138.3613" x2="1138.3613" y1="1041.9487" y2="1068.5972"/><polygon fill="#181818" points="1134.3613,1058.5972,1138.3613,1068.5972,1142.3613,1058.5972,1138.3613,1062.5972" style="stroke:#181818;stroke-width:1.0;"/><line style="stroke:#181818;stroke-width:1.0;" x1="1138.3613" x2="1138.3613" y1="1161.5659" y2="1185.9683"/><polygon fill="#181818" points="1134.3613,1175.9683,1138.3613,1185.9683,1142.3613,1175.9683,1138.3613,1179.9683" style="stroke:#181818;stroke-width:1.0;"/><line style="stroke:#181818;stroke-width:1.0;" x1="1210.3215" x2="1222.8672" y1="1149.5659" y2="1149.5659"/><polygon fill="#181818" points="1218.8672,1192.9526,1222.8672,1202.9526,1226.8672,1192.9526,1222.8672,1196.9526" style="stroke:#181818;stroke-width:1.0;"/><line style="stroke:#181818;stroke-width:1.0;" x1="1222.8672" x2="1222.8672" y1="1149.5659" y2="1256.3394"/><line style="stroke:#181818;stroke-width:1.0;" x1="1222.8672" x2="1150.3613" y1="1256.3394" y2="1256.3394"/><polygon fill="#181818" points="1160.3613,1252.3394,1150.3613,1256.3394,1160.3613,1260.3394,1156.3613,1256.3394" style="stroke:#181818;stroke-width:1.0;"/><line style="stroke:#181818;stroke-width:1.0;" x1="1138.3613" x2="1138.3613" y1="1219.937" y2="1244.3394"/><polygon fill="#181818" points="1134.3613,1234.3394,1138.3613,1244.3394,1142.3613,1234.3394,1138.3613,1238.3394" style="stroke:#181818;stroke-width:1.0;"/><line style="stroke:#181818;stroke-width:1.0;" x1="1138.3613" x2="1138.3613" y1="1102.5659" y2="1137.5659"/><polygon fill="#181818" points="1134.3613,1127.5659,1138.3613,1137.5659,1142.3613,1127.5659,1138.3613,1131.5659" style="stroke:#181818;stroke-width:1.0;"/><line style="stroke:#181818;stroke-width:1.0;" x1="1138.3613" x2="1138.3613" y1="1268.3394" y2="1303.3394"/><polygon fill="#181818" points="1134.3613,1293.3394,1138.3613,1303.3394,1142.3613,1293.3394,1138.3613,1297.3394" style="stroke:#181818;stroke-width:1.0;"/><line style="stroke:#181818;stroke-width:1.0;" x1="1138.3613" x2="1138.3613" y1="1396.3081" y2="1420.7104"/><polygon fill="#181818" points="1134.3613,1410.7104,1138.3613,1420.7104,1142.3613,1410.7104,1138.3613,1414.7104" style="stroke:#181818;stroke-width:1.0;"/><line style="stroke:#181818;stroke-width:1.0;" x1="1223.811" x2="1249.9023" y1="1384.3081" y2="1384.3081"/><polygon fill="#181818" points="1245.9023,1427.6948,1249.9023,1437.6948,1253.9023,1427.6948,1249.9023,1431.6948" style="stroke:#181818;stroke-width:1.0;"/><line style="stroke:#181818;stroke-width:1.0;" x1="1249.9023" x2="1249.9023" y1="1384.3081" y2="1486.6792"/><line style="stroke:#181818;stroke-width:1.0;" x1="1249.9023" x2="1150.3613" y1="1486.6792" y2="1486.6792"/><polygon fill="#181818" points="1160.3613,1482.6792,1150.3613,1486.6792,1160.3613,1490.6792,1156.3613,1486.6792" style="stroke:#181818;stroke-width:1.0;"/><line style="stroke:#181818;stroke-width:1.0;" x1="1138.3613" x2="1138.3613" y1="1454.6792" y2="1474.6792"/><polygon fill="#181818" points="1134.3613,1464.6792,1138.3613,1474.6792,1142.3613,1464.6792,1138.3613,1468.6792" style="stroke:#181818;stroke-width:1.0;"/><line style="stroke:#181818;stroke-width:1.0;" x1="1138.3613" x2="1138.3613" y1="1337.3081" y2="1372.3081"/><polygon fill="#181818" points="1134.3613,1362.3081,1138.3613,1372.3081,1142.3613,1362.3081,1138.3613,1366.3081" style="stroke:#181818;stroke-width:1.0;"/><line style="stroke:#181818;stroke-width:1.0;" x1="253.9722" x2="253.9722" y1="987.98" y2="1098.9175"/><polygon fill="#181818" points="249.9722,1088.9175,253.9722,1098.9175,257.9722,1088.9175,253.9722,1092.9175" style="stroke:#181818;stroke-width:1.0;"/><line style="stroke:#181818;stroke-width:1.0;" x1="674.6445" x2="674.6445" y1="987.98" y2="1199.8862"/><polygon fill="#181818" points="670.6445,1189.8862,674.6445,1199.8862,678.6445,1189.8862,674.6445,1193.8862" style="stroke:#181818;stroke-width:1.0;"/><line style="stroke:#181818;stroke-width:1.0;" x1="937.8623" x2="937.8623" y1="987.98" y2="1061.9487"/><polygon fill="#181818" points="933.8623,1051.9487,937.8623,1061.9487,941.8623,1051.9487,937.8623,1055.9487" style="stroke:#181818;stroke-width:1.0;"/><line style="stroke:#181818;stroke-width:1.0;" x1="1138.3613" x2="1138.3613" y1="987.98" y2="1007.98"/><polygon fill="#181818" points="1134.3613,997.98,1138.3613,1007.98,1142.3613,997.98,1138.3613,1001.98" style="stroke:#181818;stroke-width:1.0;"/><line style="stroke:#181818;stroke-width:1.0;" x1="253.9722" x2="253.9722" y1="1403.7925" y2="1518.6792"/><polygon fill="#181818" points="249.9722,1508.6792,253.9722,1518.6792,257.9722,1508.6792,253.9722,1512.6792" style="stroke:#181818;stroke-width:1.0;"/><line style="stroke:#181818;stroke-width:1.0;" x1="674.6445" x2="674.6445" y1="1302.8237" y2="1518.6792"/><polygon fill="#181818" points="670.6445,1508.6792,674.6445,1518.6792,678.6445,1508.6792,674.6445,1512.6792" style="stroke:#181818;stroke-width:1.0;"/><line style="stroke:#181818;stroke-width:1.0;" x1="937.8623" x2="937.8623" y1="1440.7612" y2="1518.6792"/><polygon fill="#181818" points="933.8623,1508.6792,937.8623,1518.6792,941.8623,1508.6792,937.8623,1512.6792" style="stroke:#181818;stroke-width:1.0;"/><line style="stroke:#181818;stroke-width:1.0;" x1="1138.3613" x2="1138.3613" y1="1498.6792" y2="1518.6792"/><polygon fill="#181818" points="1134.3613,1508.6792,1138.3613,1518.6792,1142.3613,1508.6792,1138.3613,1512.6792" style="stroke:#181818;stroke-width:1.0;"/><line style="stroke:#181818;stroke-width:1.0;" x1="651.4512" x2="651.4512" y1="1568.6792" y2="1593.0815"/><polygon fill="#181818" points="647.4512,1583.0815,651.4512,1593.0815,655.4512,1583.0815,651.4512,1587.0815" style="stroke:#181818;stroke-width:1.0;"/><line style="stroke:#181818;stroke-width:1.0;" x1="695.3635" x2="773.6387" y1="1556.6792" y2="1556.6792"/><polygon fill="#181818" points="769.6387,1600.0659,773.6387,1610.0659,777.6387,1600.0659,773.6387,1604.0659" style="stroke:#181818;stroke-width:1.0;"/><line style="stroke:#181818;stroke-width:1.0;" x1="773.6387" x2="773.6387" y1="1556.6792" y2="1659.0503"/><line style="stroke:#181818;stroke-width:1.0;" x1="773.6387" x2="663.4512" y1="1659.0503" y2="1659.0503"/><polygon fill="#181818" points="673.4512,1655.0503,663.4512,1659.0503,673.4512,1663.0503,669.4512,1659.0503" style="stroke:#181818;stroke-width:1.0;"/><line style="stroke:#181818;stroke-width:1.0;" x1="651.4512" x2="651.4512" y1="1627.0503" y2="1647.0503"/><polygon fill="#181818" points="647.4512,1637.0503,651.4512,1647.0503,655.4512,1637.0503,651.4512,1641.0503" style="stroke:#181818;stroke-width:1.0;"/><line style="stroke:#181818;stroke-width:1.0;" x1="651.4512" x2="651.4512" y1="1524.6792" y2="1544.6792"/><polygon fill="#181818" points="647.4512,1534.6792,651.4512,1544.6792,655.4512,1534.6792,651.4512,1538.6792" style="stroke:#181818;stroke-width:1.0;"/><line style="stroke:#181818;stroke-width:1.0;" x1="651.4512" x2="651.4512" y1="1715.0503" y2="1739.4526"/><polygon fill="#181818" points="647.4512,1729.4526,651.4512,1739.4526,655.4512,1729.4526,651.4512,1733.4526" style="stroke:#181818;stroke-width:1.0;"/><line style="stroke:#181818;stroke-width:1.0;" x1="705.2517" x2="777.7139" y1="1703.0503" y2="1703.0503"/><polygon fill="#181818" points="773.7139,1746.437,777.7139,1756.437,781.7139,1746.437,777.7139,1750.437" style="stroke:#181818;stroke-width:1.0;"/><line style="stroke:#181818;stroke-width:1.0;" x1="777.7139" x2="777.7139" y1="1703.0503" y2="1805.4214"/><line style="stroke:#181818;stroke-width:1.0;" x1="777.7139" x2="663.4512" y1="1805.4214" y2="1805.4214"/><polygon fill="#181818" points="673.4512,1801.4214,663.4512,1805.4214,673.4512,1809.4214,669.4512,1805.4214" style="stroke:#181818;stroke-width:1.0;"/><line style="stroke:#181818;stroke-width:1.0;" x1="651.4512" x2="651.4512" y1="1773.4214" y2="1793.4214"/><polygon fill="#181818" points="647.4512,1783.4214,651.4512,1793.4214,655.4512,1783.4214,651.4512,1787.4214" style="stroke:#181818;stroke-width:1.0;"/><line style="stroke:#181818;stroke-width:1.0;" x1="651.4512" x2="651.4512" y1="1671.0503" y2="1691.0503"/><polygon fill="#181818" points="647.4512,1681.0503,651.4512,1691.0503,655.4512,1681.0503,651.4512,1685.0503" style="stroke:#181818;stroke-width:1.0;"/><line style="stroke:#181818;stroke-width:1.0;" x1="651.4512" x2="651.4512" y1="1861.4214" y2="1885.8237"/><polygon fill="#181818" points="647.4512,1875.8237,651.4512,1885.8237,655.4512,1875.8237,651.4512,1879.8237" style="stroke:#181818;stroke-width:1.0;"/><line style="stroke:#181818;stroke-width:1.0;" x1="712.7175" x2="800.8145" y1="1849.4214" y2="1849.4214"/><polygon fill="#181818" points="796.8145,1892.8081,800.8145,1902.8081,804.8145,1892.8081,800.8145,1896.8081" style="stroke:#181818;stroke-width:1.0;"/><line style="stroke:#181818;stroke-width:1.0;" x1="800.8145" x2="800.8145" y1="1849.4214" y2="1951.7925"/><line style="stroke:#181818;stroke-width:1.0;" x1="800.8145" x2="663.4512" y1="1951.7925" y2="1951.7925"/><polygon fill="#181818" points="673.4512,1947.7925,663.4512,1951.7925,673.4512,1955.7925,669.4512,1951.7925" style="stroke:#181818;stroke-width:1.0;"/><line style="stroke:#181818;stroke-width:1.0;" x1="651.4512" x2="651.4512" y1="1919.7925" y2="1939.7925"/><polygon fill="#181818" points="647.4512,1929.7925,651.4512,1939.7925,655.4512,1929.7925,651.4512,1933.7925" style="stroke:#181818;stroke-width:1.0;"/><line style="stroke:#181818;stroke-width:1.0;" x1="651.4512" x2="651.4512" y1="1817.4214" y2="1837.4214"/><polygon fill="#181818" points="647.4512,1827.4214,651.4512,1837.4214,655.4512,1827.4214,651.4512,1831.4214" style="stroke:#181818;stroke-width:1.0;"/><line style="stroke:#181818;stroke-width:1.0;" x1="651.4512" x2="651.4512" y1="1963.7925" y2="1983.7925"/><polygon fill="#181818" points="647.4512,1973.7925,651.4512,1983.7925,655.4512,1973.7925,651.4512,1977.7925" style="stroke:#181818;stroke-width:1.0;"/><!--SRC=[dLNDRjf04BxxAUQ83n4zv4IaLXHG6YaaABIzR-mnZBBUiNRNDCtRz05wwWD4Qbwii_x1De54AWS3dh_l-sPsrdbbVHHDreLMRWkZbJ9UQQqWHVXCQ7PeA5NnHKGPZFu-hopbQ1Niy0dGWFXDY-9J37uh_qRhbzzn1FAPt9fxLZObiu7HbV6Mqp99wEMFaKoLmneroXisoaxWob12oi8QNV01XZlSaFDMMOSN4Mg7CBhX-3z2JKfPL86_BIe0iD3Y89GQp0S9cXfz6GuyQW9dPnzXyeLp0RPKFjdcwa78nYtO7eWZ6HihDrfyHqiP9Qh69_OPMuiylahHU86QDdupYvtF2cr6kh5yBJrRKXhkNduLbBBqaPq_Q-l4xs6kLVgn9Hs4LZlS25zH9pZ7GAxVMa7R54S7Fs4kdjVqWECvEItVTQbwMi9xM9Q-vDSZyagK2X8i7icpQvJfChKzc6sLFvwhLaZC83EwKq63EResRzmb74vJ5ygYjIaxths8IfxZiQVYwXXvLg96KSRseTPlcYIOYeOABcrPSD1mndaPZbcAhjUf8FIrzAzIf_RjY_lDa4nNc-Q4m8qJmyBigXbcBKBwCctZEfPLlKh0O53DQ1rXB5DbqQct6TJy0sjG6qNcaFkUMAZeO9fusd6VVTjnXaxXGNjvZ_DqbNfEmvUJTQ5xwHSfoUORdg8kJafcj2bjVTnwOLNn910LqXASankWtW_qoc9EPTupBTcWfwSsvMdG2zcvdazEmi1SZq9O37RSKAhj9-QXyWpZqFVjTsnGSuw1Z1ppVTaZ0yYmLfgi-EYtQr-YyzNMXgaJCcYalw3q4H3ohCxB_jBXUusvEdBF3BTgmTPZjHoR23Uu0Vu-hyc4tk9ZwC4xwPRoMow_d08w6CDjbcaoU91nOIrREFzmNjqywJivQ-zHS1y7TxXXaBrPi271ssrYvxdu1m00]--></g></svg>